%TF.GenerationSoftware,KiCad,Pcbnew,8.0.2*%
%TF.CreationDate,2025-05-09T17:21:55+03:00*%
%TF.ProjectId,Station,53746174-696f-46e2-9e6b-696361645f70,rev?*%
%TF.SameCoordinates,Original*%
%TF.FileFunction,Copper,L1,Top*%
%TF.FilePolarity,Positive*%
%FSLAX46Y46*%
G04 Gerber Fmt 4.6, Leading zero omitted, Abs format (unit mm)*
G04 Created by KiCad (PCBNEW 8.0.2) date 2025-05-09 17:21:55*
%MOMM*%
%LPD*%
G01*
G04 APERTURE LIST*
G04 Aperture macros list*
%AMRoundRect*
0 Rectangle with rounded corners*
0 $1 Rounding radius*
0 $2 $3 $4 $5 $6 $7 $8 $9 X,Y pos of 4 corners*
0 Add a 4 corners polygon primitive as box body*
4,1,4,$2,$3,$4,$5,$6,$7,$8,$9,$2,$3,0*
0 Add four circle primitives for the rounded corners*
1,1,$1+$1,$2,$3*
1,1,$1+$1,$4,$5*
1,1,$1+$1,$6,$7*
1,1,$1+$1,$8,$9*
0 Add four rect primitives between the rounded corners*
20,1,$1+$1,$2,$3,$4,$5,0*
20,1,$1+$1,$4,$5,$6,$7,0*
20,1,$1+$1,$6,$7,$8,$9,0*
20,1,$1+$1,$8,$9,$2,$3,0*%
G04 Aperture macros list end*
%TA.AperFunction,ComponentPad*%
%ADD10C,1.524000*%
%TD*%
%TA.AperFunction,ComponentPad*%
%ADD11R,1.700000X1.700000*%
%TD*%
%TA.AperFunction,ComponentPad*%
%ADD12O,1.700000X1.700000*%
%TD*%
%TA.AperFunction,ComponentPad*%
%ADD13RoundRect,0.250000X-0.750000X-1.550000X0.750000X-1.550000X0.750000X1.550000X-0.750000X1.550000X0*%
%TD*%
%TA.AperFunction,ComponentPad*%
%ADD14O,2.000000X3.600000*%
%TD*%
%TA.AperFunction,ComponentPad*%
%ADD15C,2.000000*%
%TD*%
%TA.AperFunction,ComponentPad*%
%ADD16R,1.905000X2.000000*%
%TD*%
%TA.AperFunction,ComponentPad*%
%ADD17O,1.905000X2.000000*%
%TD*%
%TA.AperFunction,ComponentPad*%
%ADD18RoundRect,0.250000X0.550000X0.550000X-0.550000X0.550000X-0.550000X-0.550000X0.550000X-0.550000X0*%
%TD*%
%TA.AperFunction,ComponentPad*%
%ADD19C,1.600000*%
%TD*%
%TA.AperFunction,ComponentPad*%
%ADD20O,4.100000X3.000000*%
%TD*%
%TA.AperFunction,ComponentPad*%
%ADD21R,2.400000X1.600000*%
%TD*%
%TA.AperFunction,ComponentPad*%
%ADD22O,2.400000X1.600000*%
%TD*%
%TA.AperFunction,ComponentPad*%
%ADD23R,2.400000X2.400000*%
%TD*%
%TA.AperFunction,ComponentPad*%
%ADD24O,2.400000X2.400000*%
%TD*%
%TA.AperFunction,ComponentPad*%
%ADD25RoundRect,0.250000X1.550000X-0.750000X1.550000X0.750000X-1.550000X0.750000X-1.550000X-0.750000X0*%
%TD*%
%TA.AperFunction,ComponentPad*%
%ADD26O,3.600000X2.000000*%
%TD*%
%TA.AperFunction,ComponentPad*%
%ADD27C,3.000000*%
%TD*%
%TA.AperFunction,ComponentPad*%
%ADD28C,2.400000*%
%TD*%
%TA.AperFunction,ComponentPad*%
%ADD29C,1.440000*%
%TD*%
%TA.AperFunction,ComponentPad*%
%ADD30R,1.050000X1.500000*%
%TD*%
%TA.AperFunction,ComponentPad*%
%ADD31O,1.050000X1.500000*%
%TD*%
%TA.AperFunction,ComponentPad*%
%ADD32RoundRect,0.250000X-1.550000X0.750000X-1.550000X-0.750000X1.550000X-0.750000X1.550000X0.750000X0*%
%TD*%
%TA.AperFunction,ComponentPad*%
%ADD33R,2.000000X1.905000*%
%TD*%
%TA.AperFunction,ComponentPad*%
%ADD34O,2.000000X1.905000*%
%TD*%
%TA.AperFunction,ComponentPad*%
%ADD35R,1.600000X1.600000*%
%TD*%
%TA.AperFunction,ViaPad*%
%ADD36C,5.000000*%
%TD*%
G04 APERTURE END LIST*
D10*
%TO.P,R100,1*%
%TO.N,/MController/Vibration_Detection*%
X54356000Y-108458000D03*
%TO.P,R100,2*%
%TO.N,Net-(D9-A)*%
X70612000Y-108458000D03*
%TD*%
D11*
%TO.P,J25,1,Pin_1*%
%TO.N,Net-(J25-Pin_1)*%
X164942000Y-23689000D03*
D12*
%TO.P,J25,2,Pin_2*%
%TO.N,Net-(J25-Pin_2)*%
X167482000Y-23689000D03*
%TD*%
D13*
%TO.P,J26,1,Pin_1*%
%TO.N,Net-(J26-Pin_1)*%
X180496000Y-27967500D03*
D14*
%TO.P,J26,2,Pin_2*%
%TO.N,Net-(J25-Pin_2)*%
X187996000Y-27967500D03*
%TD*%
D15*
%TO.P,SW7,1,1*%
%TO.N,Net-(D16-K)*%
X178712000Y-98734000D03*
X172212000Y-98734000D03*
%TO.P,SW7,2,2*%
%TO.N,/ENCODER/GND*%
X178712000Y-94234000D03*
X172212000Y-94234000D03*
%TD*%
D16*
%TO.P,Q5,1,A1*%
%TO.N,Net-(J5-Pin_2)*%
X56888500Y-21963500D03*
D17*
%TO.P,Q5,2,A2*%
%TO.N,Net-(D7-A)*%
X59428500Y-21963500D03*
%TO.P,Q5,3,G*%
%TO.N,Net-(Q5-G)*%
X61968500Y-21963500D03*
%TD*%
D18*
%TO.P,SW1,A,A*%
%TO.N,Net-(C6-Pad1)*%
X182764000Y-81752000D03*
D19*
%TO.P,SW1,B,B*%
%TO.N,Net-(C5-Pad1)*%
X182764000Y-76752000D03*
%TO.P,SW1,C,C*%
%TO.N,/ENCODER/GND*%
X182764000Y-79252000D03*
%TO.P,SW1,S1,S1*%
%TO.N,Net-(D17-K)*%
X168264000Y-81752000D03*
%TO.P,SW1,S2,S2*%
%TO.N,/ENCODER/GND*%
X168264000Y-76752000D03*
D20*
%TO.P,SW1,SH*%
%TO.N,N/C*%
X175264000Y-84852000D03*
X175264000Y-73652000D03*
%TD*%
D21*
%TO.P,U6,1*%
%TO.N,/TABLE/TABLE_Control+*%
X121031250Y-46482000D03*
D22*
%TO.P,U6,2*%
%TO.N,/TABLE/TABLE_Control-*%
X121031250Y-49022000D03*
%TO.P,U6,3,NC*%
%TO.N,unconnected-(U6-NC-Pad3)*%
X121031250Y-51562000D03*
%TO.P,U6,4*%
%TO.N,Net-(R45-Pad1)*%
X128651250Y-51562000D03*
%TO.P,U6,5,NC*%
%TO.N,unconnected-(U6-NC-Pad5)*%
X128651250Y-49022000D03*
%TO.P,U6,6*%
%TO.N,Net-(J10-Pin_1)*%
X128651250Y-46482000D03*
%TD*%
D23*
%TO.P,D7,1,K*%
%TO.N,Net-(D7-K)*%
X62984500Y-40124500D03*
D24*
%TO.P,D7,2,A*%
%TO.N,Net-(D7-A)*%
X52824500Y-40124500D03*
%TD*%
D15*
%TO.P,SW5,1,1*%
%TO.N,Net-(D21-K)*%
X148994000Y-98734000D03*
X142494000Y-98734000D03*
%TO.P,SW5,2,2*%
%TO.N,/ENCODER2/GND*%
X148994000Y-94234000D03*
X142494000Y-94234000D03*
%TD*%
D25*
%TO.P,J11,1,Pin_1*%
%TO.N,Net-(J10-Pin_2)*%
X102957750Y-31735000D03*
D26*
%TO.P,J11,2,Pin_2*%
%TO.N,Net-(J11-Pin_2)*%
X102957750Y-24235000D03*
%TD*%
D15*
%TO.P,SW8,1,1*%
%TO.N,Net-(D19-K)*%
X148994000Y-123590000D03*
X142494000Y-123590000D03*
%TO.P,SW8,2,2*%
%TO.N,/ENCODER2/GND*%
X148994000Y-119090000D03*
X142494000Y-119090000D03*
%TD*%
D25*
%TO.P,J10,1,Pin_1*%
%TO.N,Net-(J10-Pin_1)*%
X102997250Y-49455000D03*
D26*
%TO.P,J10,2,Pin_2*%
%TO.N,Net-(J10-Pin_2)*%
X102997250Y-41955000D03*
%TD*%
D25*
%TO.P,J4,1,Pin_1*%
%TO.N,Net-(D7-A)*%
X36822500Y-50418500D03*
D26*
%TO.P,J4,2,Pin_2*%
%TO.N,Net-(J4-Pin_2)*%
X36822500Y-42918500D03*
%TD*%
D15*
%TO.P,SW6,1,1*%
%TO.N,Net-(D23-K)*%
X148994000Y-111180000D03*
X142494000Y-111180000D03*
%TO.P,SW6,2,2*%
%TO.N,/ENCODER2/GND*%
X148994000Y-106680000D03*
X142494000Y-106680000D03*
%TD*%
D27*
%TO.P,K1,11*%
%TO.N,Net-(J12-Pin_2)*%
X184404000Y-35786000D03*
%TO.P,K1,12*%
%TO.N,unconnected-(K1-Pad12)*%
X190404000Y-49986000D03*
%TO.P,K1,14*%
%TO.N,Net-(J12-Pin_1)*%
X178404000Y-49986000D03*
%TO.P,K1,A1*%
%TO.N,Net-(Q9-D1)*%
X178404000Y-37786000D03*
%TO.P,K1,A2*%
%TO.N,Net-(J25-Pin_2)*%
X190404000Y-37786000D03*
%TD*%
D21*
%TO.P,U3,1*%
%TO.N,/FAN/FAN_Control+*%
X55349500Y-47251500D03*
D22*
%TO.P,U3,2*%
%TO.N,/FAN/FAN_Control-*%
X55349500Y-49791500D03*
%TO.P,U3,3,NC*%
%TO.N,unconnected-(U3-NC-Pad3)*%
X55349500Y-52331500D03*
%TO.P,U3,4*%
%TO.N,Net-(Q5-G)*%
X62969500Y-52331500D03*
%TO.P,U3,5,NC*%
%TO.N,unconnected-(U3-NC-Pad5)*%
X62969500Y-49791500D03*
%TO.P,U3,6*%
%TO.N,Net-(R34-Pad1)*%
X62969500Y-47251500D03*
%TD*%
D11*
%TO.P,J9,1,Pin_1*%
%TO.N,/TABLE/TABLE_Control+*%
X114960250Y-49261000D03*
D12*
%TO.P,J9,2,Pin_2*%
%TO.N,/TABLE/TABLE_Control-*%
X114960250Y-51801000D03*
%TD*%
D28*
%TO.P,R34,1*%
%TO.N,Net-(R34-Pad1)*%
X73652500Y-52702500D03*
D24*
%TO.P,R34,2*%
%TO.N,Net-(D7-K)*%
X73652500Y-22222500D03*
%TD*%
D15*
%TO.P,SW3,1,1*%
%TO.N,Net-(D22-K)*%
X178750000Y-111398000D03*
X172250000Y-111398000D03*
%TO.P,SW3,2,2*%
%TO.N,/ENCODER/GND*%
X178750000Y-106898000D03*
X172250000Y-106898000D03*
%TD*%
D18*
%TO.P,SW4,A,A*%
%TO.N,Net-(C10-Pad1)*%
X153300000Y-81765000D03*
D19*
%TO.P,SW4,B,B*%
%TO.N,Net-(C4-Pad1)*%
X153300000Y-76765000D03*
%TO.P,SW4,C,C*%
%TO.N,/ENCODER2/GND*%
X153300000Y-79265000D03*
%TO.P,SW4,S1,S1*%
%TO.N,Net-(D20-K)*%
X138800000Y-81765000D03*
%TO.P,SW4,S2,S2*%
%TO.N,/ENCODER2/GND*%
X138800000Y-76765000D03*
D20*
%TO.P,SW4,SH*%
%TO.N,N/C*%
X145800000Y-84865000D03*
X145800000Y-73665000D03*
%TD*%
D15*
%TO.P,SW2,1,1*%
%TO.N,Net-(D18-K)*%
X178750000Y-123880000D03*
X172250000Y-123880000D03*
%TO.P,SW2,2,2*%
%TO.N,/ENCODER/GND*%
X178750000Y-119380000D03*
X172250000Y-119380000D03*
%TD*%
D25*
%TO.P,J5,1,Pin_1*%
%TO.N,Net-(J4-Pin_2)*%
X36822500Y-32257500D03*
D26*
%TO.P,J5,2,Pin_2*%
%TO.N,Net-(J5-Pin_2)*%
X36822500Y-24757500D03*
%TD*%
D16*
%TO.P,Q7,1,A1*%
%TO.N,Net-(J11-Pin_2)*%
X119425250Y-22083000D03*
D17*
%TO.P,Q7,2,A2*%
%TO.N,Net-(J10-Pin_1)*%
X121965250Y-22083000D03*
%TO.P,Q7,3,G*%
%TO.N,Net-(Q7-G)*%
X124505250Y-22083000D03*
%TD*%
D25*
%TO.P,J12,1,Pin_1*%
%TO.N,Net-(J12-Pin_1)*%
X169093500Y-49664000D03*
D26*
%TO.P,J12,2,Pin_2*%
%TO.N,Net-(J12-Pin_2)*%
X169093500Y-42164000D03*
%TD*%
D28*
%TO.P,R45,1*%
%TO.N,Net-(R45-Pad1)*%
X139065250Y-52060000D03*
D24*
%TO.P,R45,2*%
%TO.N,Net-(Q7-G)*%
X139065250Y-21580000D03*
%TD*%
D11*
%TO.P,J7,1,Pin_1*%
%TO.N,/FAN/FAN_Control+*%
X49547500Y-49542500D03*
D12*
%TO.P,J7,2,Pin_2*%
%TO.N,/FAN/FAN_Control-*%
X49547500Y-52082500D03*
%TD*%
D29*
%TO.P,RV6,1,1*%
%TO.N,Net-(J40-Pin_2)*%
X107188000Y-110665750D03*
%TO.P,RV6,2,2*%
%TO.N,Net-(Q6-C)*%
X107188000Y-108125750D03*
%TO.P,RV6,3,3*%
X107188000Y-105585750D03*
%TD*%
D11*
%TO.P,J15,1,Pin_1*%
%TO.N,+3V3*%
X62455100Y-138249750D03*
D12*
%TO.P,J15,2,Pin_2*%
%TO.N,/MController/E2B3*%
X59915100Y-138249750D03*
%TO.P,J15,3,Pin_3*%
%TO.N,/MController/E2B2*%
X57375100Y-138249750D03*
%TO.P,J15,4,Pin_4*%
%TO.N,/MController/E2B1*%
X54835100Y-138249750D03*
%TO.P,J15,5,Pin_5*%
%TO.N,/MController/E2S*%
X52295100Y-138249750D03*
%TO.P,J15,6,Pin_6*%
%TO.N,/MController/E2BI*%
X49755100Y-138249750D03*
%TO.P,J15,7,Pin_7*%
%TO.N,/MController/E2B*%
X47215100Y-138249750D03*
%TO.P,J15,8,Pin_8*%
%TO.N,/MController/E2A*%
X44675100Y-138249750D03*
%TO.P,J15,9,Pin_9*%
%TO.N,GND*%
X42135100Y-138249750D03*
%TD*%
D30*
%TO.P,U1,1,REF*%
%TO.N,Net-(U1-REF)*%
X105918000Y-136437000D03*
D31*
%TO.P,U1,2,A*%
%TO.N,Motor-*%
X107188000Y-136437000D03*
%TO.P,U1,3,K*%
%TO.N,Net-(J40-Pin_1)*%
X108458000Y-136437000D03*
%TD*%
D11*
%TO.P,J3,1,Pin_1*%
%TO.N,/ENCODER/GND*%
X186080000Y-67543000D03*
D12*
%TO.P,J3,2,Pin_2*%
%TO.N,/ENCODER/Button3*%
X183540000Y-67543000D03*
%TO.P,J3,3,Pin_3*%
%TO.N,/ENCODER/Button2*%
X181000000Y-67543000D03*
%TO.P,J3,4,Pin_4*%
%TO.N,/ENCODER/Batton1*%
X178460000Y-67543000D03*
%TO.P,J3,5,Pin_5*%
%TO.N,/ENCODER/Encoder_int*%
X175920000Y-67543000D03*
%TO.P,J3,6,Pin_6*%
%TO.N,/ENCODER/B*%
X173380000Y-67543000D03*
%TO.P,J3,7,Pin_7*%
%TO.N,/ENCODER/S*%
X170840000Y-67543000D03*
%TO.P,J3,8,Pin_8*%
%TO.N,/ENCODER/A*%
X168300000Y-67543000D03*
%TO.P,J3,9,Pin_9*%
%TO.N,/ENCODER/3v3*%
X165760000Y-67543000D03*
%TD*%
D23*
%TO.P,J16,1,Pin_1*%
%TO.N,/ZCD/AC *%
X30197100Y-96593750D03*
D28*
%TO.P,J16,2,Pin_2*%
%TO.N,/ZCD/~AC*%
X33697100Y-96593750D03*
%TD*%
D32*
%TO.P,J22,1,Pin_1*%
%TO.N,Net-(J22-Pin_1)*%
X114808000Y-120897000D03*
D26*
%TO.P,J22,2,Pin_2*%
%TO.N,Motor-*%
X114808000Y-128397000D03*
%TD*%
D33*
%TO.P,Q10,1,G*%
%TO.N,Net-(J40-Pin_2)*%
X112776000Y-108137000D03*
D34*
%TO.P,Q10,2,D*%
%TO.N,Net-(J22-Pin_1)*%
X112776000Y-110677000D03*
%TO.P,Q10,3,S*%
%TO.N,Motor+*%
X112776000Y-113217000D03*
%TD*%
D11*
%TO.P,J8,1,Pin_1*%
%TO.N,Net-(J8-Pin_1)*%
X36581000Y-124118000D03*
D12*
%TO.P,J8,2,Pin_2*%
%TO.N,GND*%
X34041000Y-124118000D03*
%TD*%
D29*
%TO.P,RV1,1,1*%
%TO.N,Net-(U5B--)*%
X62580600Y-89166250D03*
%TO.P,RV1,2,2*%
%TO.N,Net-(R3-Pad1)*%
X60040600Y-89166250D03*
%TO.P,RV1,3,3*%
X57500600Y-89166250D03*
%TD*%
D12*
%TO.P,J6,2,Pin_2*%
%TO.N,GND*%
X34036000Y-111188000D03*
D11*
%TO.P,J6,1,Pin_1*%
%TO.N,Net-(J6-Pin_1)*%
X36576000Y-111188000D03*
%TD*%
%TO.P,U8,1,VB*%
%TO.N,unconnected-(U8-VB-Pad1)*%
X92935100Y-111579750D03*
D12*
%TO.P,U8,2,C13*%
%TO.N,/FAN/~FAN_FULL_Speed*%
X90395100Y-111579750D03*
%TO.P,U8,3,C14*%
%TO.N,unconnected-(U8-C14-Pad3)*%
X87855100Y-111579750D03*
%TO.P,U8,4,C15*%
%TO.N,/FAN/FAN_OFF{slash}ON*%
X85315100Y-111579750D03*
%TO.P,U8,5,A0*%
%TO.N,/FAN/FAN_Speed_Analog*%
X82775100Y-111579750D03*
%TO.P,U8,6,A1*%
%TO.N,/FAN/FAN_Analog*%
X80235100Y-111579750D03*
%TO.P,U8,7,A2*%
%TO.N,/FAN/Gerkon*%
X77695100Y-111579750D03*
%TO.P,U8,8,A3*%
%TO.N,/MController/SOLDER_PWM*%
X75155100Y-111579750D03*
%TO.P,U8,9,A4*%
%TO.N,/MController/Solder_Full_Power*%
X72615100Y-111579750D03*
%TO.P,U8,10,A5*%
%TO.N,/MController/Solder_Analog*%
X70075100Y-111579750D03*
%TO.P,U8,11,A6*%
%TO.N,/MController/ZCD*%
X67535100Y-111579750D03*
%TO.P,U8,12,A7*%
%TO.N,/MController/TABLE_Control+*%
X64995100Y-111579750D03*
%TO.P,U8,13,B0*%
%TO.N,/MController/TABLE_Analog*%
X62455100Y-111579750D03*
%TO.P,U8,14,B1*%
%TO.N,/MController/FAN_Control+*%
X59915100Y-111579750D03*
%TO.P,U8,15,B10*%
%TO.N,/MController/Reley_Control*%
X57375100Y-111579750D03*
%TO.P,U8,16,B11*%
%TO.N,/MController/Vibration_Detection*%
X54835100Y-111579750D03*
%TO.P,U8,17,R*%
%TO.N,unconnected-(U8-R-Pad17)*%
X52295100Y-111579750D03*
%TO.P,U8,18,3V3*%
%TO.N,+3V3*%
X49755100Y-111579750D03*
%TO.P,U8,19,GND*%
%TO.N,GND*%
X47215100Y-111579750D03*
%TO.P,U8,20,GND*%
X44675100Y-111579750D03*
%TO.P,U8,21,B12*%
%TO.N,/MController/E2A*%
X44675100Y-126819750D03*
%TO.P,U8,22,B13*%
%TO.N,/MController/E2B*%
X47215100Y-126819750D03*
%TO.P,U8,23,B14*%
%TO.N,/MController/E2BI*%
X49755100Y-126819750D03*
%TO.P,U8,24,B15*%
%TO.N,/MController/E2S*%
X52295100Y-126819750D03*
%TO.P,U8,25,A8*%
%TO.N,/MController/E2B1*%
X54835100Y-126819750D03*
%TO.P,U8,26,A9*%
%TO.N,/MController/E2B2*%
X57375100Y-126819750D03*
%TO.P,U8,27,A10*%
%TO.N,/MController/E2B3*%
X59915100Y-126819750D03*
%TO.P,U8,28,A11*%
%TO.N,/MController/E1A*%
X62455100Y-126819750D03*
%TO.P,U8,29,A12*%
%TO.N,/MController/E1S*%
X64995100Y-126819750D03*
%TO.P,U8,30,A15*%
%TO.N,/MController/E1B*%
X67535100Y-126819750D03*
%TO.P,U8,31,B3*%
%TO.N,/MController/E1BI*%
X70075100Y-126819750D03*
%TO.P,U8,32,B4*%
%TO.N,/MController/E1B1*%
X72615100Y-126819750D03*
%TO.P,U8,33,B5*%
%TO.N,/MController/E1B2*%
X75155100Y-126819750D03*
%TO.P,U8,34,B6*%
%TO.N,/MController/SCL*%
X77695100Y-126819750D03*
%TO.P,U8,35,B7*%
%TO.N,/MController/SDA*%
X80235100Y-126819750D03*
%TO.P,U8,36,B8*%
%TO.N,/MController/E1B3*%
X82775100Y-126819750D03*
%TO.P,U8,37,B9*%
%TO.N,/FAN/~FAN_FULL_Speed*%
X85315100Y-126819750D03*
%TO.P,U8,38,5V*%
%TO.N,unconnected-(U8-5V-Pad38)*%
X87855100Y-126819750D03*
%TO.P,U8,39,GND*%
%TO.N,GND*%
X90395100Y-126819750D03*
D11*
%TO.P,U8,40,3V3*%
%TO.N,+3V3*%
X92935100Y-126819750D03*
%TD*%
%TO.P,J13,1,Pin_1*%
%TO.N,GND*%
X88109100Y-138249750D03*
D12*
%TO.P,J13,2,Pin_2*%
%TO.N,/MController/E1B3*%
X85569100Y-138249750D03*
%TO.P,J13,3,Pin_3*%
%TO.N,/MController/E1B2*%
X83029100Y-138249750D03*
%TO.P,J13,4,Pin_4*%
%TO.N,/MController/E1B1*%
X80489100Y-138249750D03*
%TO.P,J13,5,Pin_5*%
%TO.N,/MController/E1BI*%
X77949100Y-138249750D03*
%TO.P,J13,6,Pin_6*%
%TO.N,/MController/E1B*%
X75409100Y-138249750D03*
%TO.P,J13,7,Pin_7*%
%TO.N,/MController/E1S*%
X72869100Y-138249750D03*
%TO.P,J13,8,Pin_8*%
%TO.N,/MController/E1A*%
X70329100Y-138249750D03*
%TO.P,J13,9,Pin_9*%
%TO.N,+3V3*%
X67789100Y-138249750D03*
%TD*%
D29*
%TO.P,RV4,1,1*%
%TO.N,Net-(J40-Pin_1)*%
X100913000Y-137967000D03*
%TO.P,RV4,2,2*%
%TO.N,Net-(U1-REF)*%
X100913000Y-135427000D03*
%TO.P,RV4,3,3*%
%TO.N,Motor-*%
X100913000Y-132887000D03*
%TD*%
D35*
%TO.P,C8,1*%
%TO.N,Net-(J22-Pin_1)*%
X103124000Y-128330000D03*
D19*
%TO.P,C8,2*%
%TO.N,Motor-*%
X103124000Y-123330000D03*
%TD*%
D25*
%TO.P,J17,1,Pin_1*%
%TO.N,+3V3*%
X44889600Y-101613750D03*
D26*
%TO.P,J17,2,Pin_2*%
%TO.N,GND*%
X44889600Y-94113750D03*
%TD*%
D11*
%TO.P,J21,1,Pin_1*%
%TO.N,Gerkon_in*%
X106963600Y-95534750D03*
D12*
%TO.P,J21,2,Pin_2*%
%TO.N,FAN_Termistor*%
X109503600Y-95534750D03*
%TO.P,J21,3,Pin_3*%
%TO.N,Motor+*%
X112043600Y-95534750D03*
%TO.P,J21,4,Pin_4*%
%TO.N,Motor-*%
X114583600Y-95534750D03*
%TO.P,J21,5,Pin_5*%
%TO.N,GND*%
X117123600Y-95534750D03*
%TD*%
D25*
%TO.P,J19,1,Pin_1*%
%TO.N,+24V*%
X92954100Y-75662750D03*
D26*
%TO.P,J19,2,Pin_2*%
%TO.N,GND*%
X92954100Y-68162750D03*
%TD*%
D11*
%TO.P,J23,1,Pin_1*%
%TO.N,Table_Termistor*%
X40229350Y-66465000D03*
D12*
%TO.P,J23,2,Pin_2*%
%TO.N,GND*%
X42769350Y-66465000D03*
%TD*%
D13*
%TO.P,J18,1,Pin_1*%
%TO.N,+5V*%
X72987600Y-62546500D03*
D14*
%TO.P,J18,2,Pin_2*%
%TO.N,GND*%
X80487600Y-62546500D03*
%TD*%
D11*
%TO.P,J40,1,Pin_1*%
%TO.N,Net-(J40-Pin_1)*%
X107062100Y-119032750D03*
D12*
%TO.P,J40,2,Pin_2*%
%TO.N,Net-(J40-Pin_2)*%
X107062100Y-116492750D03*
%TO.P,J40,3,Pin_3*%
X107062100Y-113952750D03*
%TD*%
D25*
%TO.P,J20,1,Pin_1*%
%TO.N,Net-(J20-Pin_1)*%
X75340600Y-80936750D03*
D26*
%TO.P,J20,2,Pin_2*%
%TO.N,GND*%
X75340600Y-73436750D03*
%TD*%
D11*
%TO.P,J1,1,Pin_1*%
%TO.N,Net-(J1-Pin_1)*%
X76102600Y-95412750D03*
D12*
%TO.P,J1,2,Pin_2*%
%TO.N,Net-(J1-Pin_2)*%
X76102600Y-92872750D03*
%TD*%
D29*
%TO.P,RV5,1,1*%
%TO.N,Net-(U4B--)*%
X45054600Y-83578250D03*
%TO.P,RV5,2,2*%
%TO.N,Net-(R40-Pad1)*%
X45054600Y-86118250D03*
%TO.P,RV5,3,3*%
X45054600Y-88658250D03*
%TD*%
D11*
%TO.P,J24,1,Pin_1*%
%TO.N,Net-(J24-Pin_1)*%
X36581000Y-117514000D03*
D12*
%TO.P,J24,2,Pin_2*%
%TO.N,GND*%
X34041000Y-117514000D03*
%TD*%
D11*
%TO.P,J2,1,Pin_1*%
%TO.N,+3V3*%
X91919100Y-140535750D03*
D12*
%TO.P,J2,2,Pin_2*%
%TO.N,GND*%
X91919100Y-137995750D03*
%TO.P,J2,3,Pin_3*%
%TO.N,Net-(J2-Pin_3)*%
X91919100Y-135455750D03*
%TO.P,J2,4,Pin_4*%
%TO.N,Net-(J2-Pin_4)*%
X91919100Y-132915750D03*
%TD*%
D29*
%TO.P,RV2,1,1*%
%TO.N,Net-(U2B--)*%
X110265600Y-89184750D03*
%TO.P,RV2,2,2*%
%TO.N,Net-(R23-Pad1)*%
X107725600Y-89184750D03*
%TO.P,RV2,3,3*%
X105185600Y-89184750D03*
%TD*%
D11*
%TO.P,J14,1,Pin_1*%
%TO.N,/ENCODER2/3v3*%
X156839000Y-66933000D03*
D12*
%TO.P,J14,2,Pin_2*%
%TO.N,/ENCODER2/Button3*%
X154299000Y-66933000D03*
%TO.P,J14,3,Pin_3*%
%TO.N,/ENCODER2/Button2*%
X151759000Y-66933000D03*
%TO.P,J14,4,Pin_4*%
%TO.N,/ENCODER2/Batton1*%
X149219000Y-66933000D03*
%TO.P,J14,5,Pin_5*%
%TO.N,/ENCODER2/S*%
X146679000Y-66933000D03*
%TO.P,J14,6,Pin_6*%
%TO.N,/ENCODER2/Encoder_int*%
X144139000Y-66933000D03*
%TO.P,J14,7,Pin_7*%
%TO.N,/ENCODER2/B*%
X141599000Y-66933000D03*
%TO.P,J14,8,Pin_8*%
%TO.N,/ENCODER2/A*%
X139059000Y-66933000D03*
%TO.P,J14,9,Pin_9*%
%TO.N,/ENCODER2/GND*%
X136519000Y-66933000D03*
%TD*%
D36*
%TO.N,*%
X126492000Y-124206000D03*
X92574750Y-23640500D03*
X194818000Y-62484000D03*
X148454750Y-51580500D03*
X92574750Y-51580500D03*
X83653000Y-23555250D03*
X198756500Y-23951000D03*
X158116500Y-23951000D03*
X115413350Y-137326000D03*
X198756500Y-51891000D03*
X115413350Y-63666000D03*
X27773000Y-23555250D03*
X158116500Y-51891000D03*
X148454750Y-23640500D03*
X194818000Y-124206000D03*
X83788250Y-51554500D03*
X29053350Y-63666000D03*
X126492000Y-62484000D03*
X27773000Y-51554500D03*
X29053350Y-137326000D03*
%TD*%
M02*
