%TF.GenerationSoftware,KiCad,Pcbnew,8.0.2*%
%TF.CreationDate,2025-05-09T17:21:55+03:00*%
%TF.ProjectId,Station,53746174-696f-46e2-9e6b-696361645f70,rev?*%
%TF.SameCoordinates,Original*%
%TF.FileFunction,Soldermask,Top*%
%TF.FilePolarity,Negative*%
%FSLAX46Y46*%
G04 Gerber Fmt 4.6, Leading zero omitted, Abs format (unit mm)*
G04 Created by KiCad (PCBNEW 8.0.2) date 2025-05-09 17:21:55*
%MOMM*%
%LPD*%
G01*
G04 APERTURE LIST*
G04 Aperture macros list*
%AMRoundRect*
0 Rectangle with rounded corners*
0 $1 Rounding radius*
0 $2 $3 $4 $5 $6 $7 $8 $9 X,Y pos of 4 corners*
0 Add a 4 corners polygon primitive as box body*
4,1,4,$2,$3,$4,$5,$6,$7,$8,$9,$2,$3,0*
0 Add four circle primitives for the rounded corners*
1,1,$1+$1,$2,$3*
1,1,$1+$1,$4,$5*
1,1,$1+$1,$6,$7*
1,1,$1+$1,$8,$9*
0 Add four rect primitives between the rounded corners*
20,1,$1+$1,$2,$3,$4,$5,0*
20,1,$1+$1,$4,$5,$6,$7,0*
20,1,$1+$1,$6,$7,$8,$9,0*
20,1,$1+$1,$8,$9,$2,$3,0*%
G04 Aperture macros list end*
%ADD10C,1.524000*%
%ADD11R,1.700000X1.700000*%
%ADD12O,1.700000X1.700000*%
%ADD13RoundRect,0.250000X-0.750000X-1.550000X0.750000X-1.550000X0.750000X1.550000X-0.750000X1.550000X0*%
%ADD14O,2.000000X3.600000*%
%ADD15C,2.000000*%
%ADD16R,1.905000X2.000000*%
%ADD17O,1.905000X2.000000*%
%ADD18RoundRect,0.250000X0.550000X0.550000X-0.550000X0.550000X-0.550000X-0.550000X0.550000X-0.550000X0*%
%ADD19C,1.600000*%
%ADD20O,4.100000X3.000000*%
%ADD21R,2.400000X1.600000*%
%ADD22O,2.400000X1.600000*%
%ADD23R,2.400000X2.400000*%
%ADD24O,2.400000X2.400000*%
%ADD25RoundRect,0.250000X1.550000X-0.750000X1.550000X0.750000X-1.550000X0.750000X-1.550000X-0.750000X0*%
%ADD26O,3.600000X2.000000*%
%ADD27C,3.000000*%
%ADD28C,2.400000*%
%ADD29C,1.440000*%
%ADD30R,1.050000X1.500000*%
%ADD31O,1.050000X1.500000*%
%ADD32RoundRect,0.250000X-1.550000X0.750000X-1.550000X-0.750000X1.550000X-0.750000X1.550000X0.750000X0*%
%ADD33R,2.000000X1.905000*%
%ADD34O,2.000000X1.905000*%
%ADD35R,1.600000X1.600000*%
G04 APERTURE END LIST*
D10*
%TO.C,R100*%
X54356000Y-108458000D03*
X70612000Y-108458000D03*
%TD*%
D11*
%TO.C,J25*%
X164942000Y-23689000D03*
D12*
X167482000Y-23689000D03*
%TD*%
D13*
%TO.C,J26*%
X180496000Y-27967500D03*
D14*
X187996000Y-27967500D03*
%TD*%
D15*
%TO.C,SW7*%
X178712000Y-98734000D03*
X172212000Y-98734000D03*
X178712000Y-94234000D03*
X172212000Y-94234000D03*
%TD*%
D16*
%TO.C,Q5*%
X56888500Y-21963500D03*
D17*
X59428500Y-21963500D03*
X61968500Y-21963500D03*
%TD*%
D18*
%TO.C,SW1*%
X182764000Y-81752000D03*
D19*
X182764000Y-76752000D03*
X182764000Y-79252000D03*
X168264000Y-81752000D03*
X168264000Y-76752000D03*
D20*
X175264000Y-84852000D03*
X175264000Y-73652000D03*
%TD*%
D21*
%TO.C,U6*%
X121031250Y-46482000D03*
D22*
X121031250Y-49022000D03*
X121031250Y-51562000D03*
X128651250Y-51562000D03*
X128651250Y-49022000D03*
X128651250Y-46482000D03*
%TD*%
D23*
%TO.C,D7*%
X62984500Y-40124500D03*
D24*
X52824500Y-40124500D03*
%TD*%
D15*
%TO.C,SW5*%
X148994000Y-98734000D03*
X142494000Y-98734000D03*
X148994000Y-94234000D03*
X142494000Y-94234000D03*
%TD*%
D25*
%TO.C,J11*%
X102957750Y-31735000D03*
D26*
X102957750Y-24235000D03*
%TD*%
D15*
%TO.C,SW8*%
X148994000Y-123590000D03*
X142494000Y-123590000D03*
X148994000Y-119090000D03*
X142494000Y-119090000D03*
%TD*%
D25*
%TO.C,J10*%
X102997250Y-49455000D03*
D26*
X102997250Y-41955000D03*
%TD*%
D25*
%TO.C,J4*%
X36822500Y-50418500D03*
D26*
X36822500Y-42918500D03*
%TD*%
D15*
%TO.C,SW6*%
X148994000Y-111180000D03*
X142494000Y-111180000D03*
X148994000Y-106680000D03*
X142494000Y-106680000D03*
%TD*%
D27*
%TO.C,K1*%
X184404000Y-35786000D03*
X190404000Y-49986000D03*
X178404000Y-49986000D03*
X178404000Y-37786000D03*
X190404000Y-37786000D03*
%TD*%
D21*
%TO.C,U3*%
X55349500Y-47251500D03*
D22*
X55349500Y-49791500D03*
X55349500Y-52331500D03*
X62969500Y-52331500D03*
X62969500Y-49791500D03*
X62969500Y-47251500D03*
%TD*%
D11*
%TO.C,J9*%
X114960250Y-49261000D03*
D12*
X114960250Y-51801000D03*
%TD*%
D28*
%TO.C,R34*%
X73652500Y-52702500D03*
D24*
X73652500Y-22222500D03*
%TD*%
D15*
%TO.C,SW3*%
X178750000Y-111398000D03*
X172250000Y-111398000D03*
X178750000Y-106898000D03*
X172250000Y-106898000D03*
%TD*%
D18*
%TO.C,SW4*%
X153300000Y-81765000D03*
D19*
X153300000Y-76765000D03*
X153300000Y-79265000D03*
X138800000Y-81765000D03*
X138800000Y-76765000D03*
D20*
X145800000Y-84865000D03*
X145800000Y-73665000D03*
%TD*%
D15*
%TO.C,SW2*%
X178750000Y-123880000D03*
X172250000Y-123880000D03*
X178750000Y-119380000D03*
X172250000Y-119380000D03*
%TD*%
D25*
%TO.C,J5*%
X36822500Y-32257500D03*
D26*
X36822500Y-24757500D03*
%TD*%
D16*
%TO.C,Q7*%
X119425250Y-22083000D03*
D17*
X121965250Y-22083000D03*
X124505250Y-22083000D03*
%TD*%
D25*
%TO.C,J12*%
X169093500Y-49664000D03*
D26*
X169093500Y-42164000D03*
%TD*%
D28*
%TO.C,R45*%
X139065250Y-52060000D03*
D24*
X139065250Y-21580000D03*
%TD*%
D11*
%TO.C,J7*%
X49547500Y-49542500D03*
D12*
X49547500Y-52082500D03*
%TD*%
D29*
%TO.C,RV6*%
X107188000Y-110665750D03*
X107188000Y-108125750D03*
X107188000Y-105585750D03*
%TD*%
D11*
%TO.C,J15*%
X62455100Y-138249750D03*
D12*
X59915100Y-138249750D03*
X57375100Y-138249750D03*
X54835100Y-138249750D03*
X52295100Y-138249750D03*
X49755100Y-138249750D03*
X47215100Y-138249750D03*
X44675100Y-138249750D03*
X42135100Y-138249750D03*
%TD*%
D30*
%TO.C,U1*%
X105918000Y-136437000D03*
D31*
X107188000Y-136437000D03*
X108458000Y-136437000D03*
%TD*%
D11*
%TO.C,J3*%
X186080000Y-67543000D03*
D12*
X183540000Y-67543000D03*
X181000000Y-67543000D03*
X178460000Y-67543000D03*
X175920000Y-67543000D03*
X173380000Y-67543000D03*
X170840000Y-67543000D03*
X168300000Y-67543000D03*
X165760000Y-67543000D03*
%TD*%
D23*
%TO.C,J16*%
X30197100Y-96593750D03*
D28*
X33697100Y-96593750D03*
%TD*%
D32*
%TO.C,J22*%
X114808000Y-120897000D03*
D26*
X114808000Y-128397000D03*
%TD*%
D33*
%TO.C,Q10*%
X112776000Y-108137000D03*
D34*
X112776000Y-110677000D03*
X112776000Y-113217000D03*
%TD*%
D11*
%TO.C,J8*%
X36581000Y-124118000D03*
D12*
X34041000Y-124118000D03*
%TD*%
D29*
%TO.C,RV1*%
X62580600Y-89166250D03*
X60040600Y-89166250D03*
X57500600Y-89166250D03*
%TD*%
D12*
%TO.C,J6*%
X34036000Y-111188000D03*
D11*
X36576000Y-111188000D03*
%TD*%
%TO.C,U8*%
X92935100Y-111579750D03*
D12*
X90395100Y-111579750D03*
X87855100Y-111579750D03*
X85315100Y-111579750D03*
X82775100Y-111579750D03*
X80235100Y-111579750D03*
X77695100Y-111579750D03*
X75155100Y-111579750D03*
X72615100Y-111579750D03*
X70075100Y-111579750D03*
X67535100Y-111579750D03*
X64995100Y-111579750D03*
X62455100Y-111579750D03*
X59915100Y-111579750D03*
X57375100Y-111579750D03*
X54835100Y-111579750D03*
X52295100Y-111579750D03*
X49755100Y-111579750D03*
X47215100Y-111579750D03*
X44675100Y-111579750D03*
X44675100Y-126819750D03*
X47215100Y-126819750D03*
X49755100Y-126819750D03*
X52295100Y-126819750D03*
X54835100Y-126819750D03*
X57375100Y-126819750D03*
X59915100Y-126819750D03*
X62455100Y-126819750D03*
X64995100Y-126819750D03*
X67535100Y-126819750D03*
X70075100Y-126819750D03*
X72615100Y-126819750D03*
X75155100Y-126819750D03*
X77695100Y-126819750D03*
X80235100Y-126819750D03*
X82775100Y-126819750D03*
X85315100Y-126819750D03*
X87855100Y-126819750D03*
X90395100Y-126819750D03*
D11*
X92935100Y-126819750D03*
%TD*%
%TO.C,J13*%
X88109100Y-138249750D03*
D12*
X85569100Y-138249750D03*
X83029100Y-138249750D03*
X80489100Y-138249750D03*
X77949100Y-138249750D03*
X75409100Y-138249750D03*
X72869100Y-138249750D03*
X70329100Y-138249750D03*
X67789100Y-138249750D03*
%TD*%
D29*
%TO.C,RV4*%
X100913000Y-137967000D03*
X100913000Y-135427000D03*
X100913000Y-132887000D03*
%TD*%
D35*
%TO.C,C8*%
X103124000Y-128330000D03*
D19*
X103124000Y-123330000D03*
%TD*%
D25*
%TO.C,J17*%
X44889600Y-101613750D03*
D26*
X44889600Y-94113750D03*
%TD*%
D11*
%TO.C,J21*%
X106963600Y-95534750D03*
D12*
X109503600Y-95534750D03*
X112043600Y-95534750D03*
X114583600Y-95534750D03*
X117123600Y-95534750D03*
%TD*%
D25*
%TO.C,J19*%
X92954100Y-75662750D03*
D26*
X92954100Y-68162750D03*
%TD*%
D11*
%TO.C,J23*%
X40229350Y-66465000D03*
D12*
X42769350Y-66465000D03*
%TD*%
D13*
%TO.C,J18*%
X72987600Y-62546500D03*
D14*
X80487600Y-62546500D03*
%TD*%
D11*
%TO.C,J40*%
X107062100Y-119032750D03*
D12*
X107062100Y-116492750D03*
X107062100Y-113952750D03*
%TD*%
D25*
%TO.C,J20*%
X75340600Y-80936750D03*
D26*
X75340600Y-73436750D03*
%TD*%
D11*
%TO.C,J1*%
X76102600Y-95412750D03*
D12*
X76102600Y-92872750D03*
%TD*%
D29*
%TO.C,RV5*%
X45054600Y-83578250D03*
X45054600Y-86118250D03*
X45054600Y-88658250D03*
%TD*%
D11*
%TO.C,J24*%
X36581000Y-117514000D03*
D12*
X34041000Y-117514000D03*
%TD*%
D11*
%TO.C,J2*%
X91919100Y-140535750D03*
D12*
X91919100Y-137995750D03*
X91919100Y-135455750D03*
X91919100Y-132915750D03*
%TD*%
D29*
%TO.C,RV2*%
X110265600Y-89184750D03*
X107725600Y-89184750D03*
X105185600Y-89184750D03*
%TD*%
D11*
%TO.C,J14*%
X156839000Y-66933000D03*
D12*
X154299000Y-66933000D03*
X151759000Y-66933000D03*
X149219000Y-66933000D03*
X146679000Y-66933000D03*
X144139000Y-66933000D03*
X141599000Y-66933000D03*
X139059000Y-66933000D03*
X136519000Y-66933000D03*
%TD*%
M02*
