%TF.GenerationSoftware,KiCad,Pcbnew,8.0.2*%
%TF.CreationDate,2025-04-12T12:52:08+03:00*%
%TF.ProjectId,Station,53746174-696f-46e2-9e6b-696361645f70,rev?*%
%TF.SameCoordinates,Original*%
%TF.FileFunction,Soldermask,Bot*%
%TF.FilePolarity,Negative*%
%FSLAX46Y46*%
G04 Gerber Fmt 4.6, Leading zero omitted, Abs format (unit mm)*
G04 Created by KiCad (PCBNEW 8.0.2) date 2025-04-12 12:52:08*
%MOMM*%
%LPD*%
G01*
G04 APERTURE LIST*
G04 Aperture macros list*
%AMRoundRect*
0 Rectangle with rounded corners*
0 $1 Rounding radius*
0 $2 $3 $4 $5 $6 $7 $8 $9 X,Y pos of 4 corners*
0 Add a 4 corners polygon primitive as box body*
4,1,4,$2,$3,$4,$5,$6,$7,$8,$9,$2,$3,0*
0 Add four circle primitives for the rounded corners*
1,1,$1+$1,$2,$3*
1,1,$1+$1,$4,$5*
1,1,$1+$1,$6,$7*
1,1,$1+$1,$8,$9*
0 Add four rect primitives between the rounded corners*
20,1,$1+$1,$2,$3,$4,$5,0*
20,1,$1+$1,$4,$5,$6,$7,0*
20,1,$1+$1,$6,$7,$8,$9,0*
20,1,$1+$1,$8,$9,$2,$3,0*%
G04 Aperture macros list end*
%ADD10C,1.440000*%
%ADD11R,1.700000X1.700000*%
%ADD12O,1.700000X1.700000*%
%ADD13R,1.050000X1.500000*%
%ADD14O,1.050000X1.500000*%
%ADD15R,2.400000X2.400000*%
%ADD16C,2.400000*%
%ADD17RoundRect,0.250000X-1.550000X0.750000X-1.550000X-0.750000X1.550000X-0.750000X1.550000X0.750000X0*%
%ADD18O,3.600000X2.000000*%
%ADD19R,2.000000X1.905000*%
%ADD20O,2.000000X1.905000*%
%ADD21RoundRect,0.250000X-0.750000X-1.550000X0.750000X-1.550000X0.750000X1.550000X-0.750000X1.550000X0*%
%ADD22O,2.000000X3.600000*%
%ADD23C,2.000000*%
%ADD24R,1.905000X2.000000*%
%ADD25O,1.905000X2.000000*%
%ADD26RoundRect,0.250000X0.550000X0.550000X-0.550000X0.550000X-0.550000X-0.550000X0.550000X-0.550000X0*%
%ADD27C,1.600000*%
%ADD28O,4.100000X3.000000*%
%ADD29R,2.400000X1.600000*%
%ADD30O,2.400000X1.600000*%
%ADD31O,2.400000X2.400000*%
%ADD32RoundRect,0.250000X1.550000X-0.750000X1.550000X0.750000X-1.550000X0.750000X-1.550000X-0.750000X0*%
%ADD33R,1.600000X1.600000*%
%ADD34C,3.000000*%
%ADD35RoundRect,0.250000X0.400000X0.625000X-0.400000X0.625000X-0.400000X-0.625000X0.400000X-0.625000X0*%
%ADD36RoundRect,0.250000X-0.400000X-0.625000X0.400000X-0.625000X0.400000X0.625000X-0.400000X0.625000X0*%
%ADD37RoundRect,0.125000X-0.125000X-0.125000X0.125000X-0.125000X0.125000X0.125000X-0.125000X0.125000X0*%
%ADD38RoundRect,0.250000X0.650000X-0.325000X0.650000X0.325000X-0.650000X0.325000X-0.650000X-0.325000X0*%
%ADD39RoundRect,0.250000X-0.625000X0.400000X-0.625000X-0.400000X0.625000X-0.400000X0.625000X0.400000X0*%
%ADD40RoundRect,0.125000X-0.125000X0.125000X-0.125000X-0.125000X0.125000X-0.125000X0.125000X0.125000X0*%
%ADD41R,1.220000X0.650000*%
%ADD42RoundRect,0.250000X0.625000X-0.400000X0.625000X0.400000X-0.625000X0.400000X-0.625000X-0.400000X0*%
%ADD43RoundRect,0.150000X0.150000X-0.825000X0.150000X0.825000X-0.150000X0.825000X-0.150000X-0.825000X0*%
%ADD44RoundRect,0.125000X0.125000X0.125000X-0.125000X0.125000X-0.125000X-0.125000X0.125000X-0.125000X0*%
%ADD45RoundRect,0.250000X-0.650000X1.000000X-0.650000X-1.000000X0.650000X-1.000000X0.650000X1.000000X0*%
%ADD46RoundRect,0.250000X-0.325000X-0.650000X0.325000X-0.650000X0.325000X0.650000X-0.325000X0.650000X0*%
%ADD47RoundRect,0.250000X0.325000X0.650000X-0.325000X0.650000X-0.325000X-0.650000X0.325000X-0.650000X0*%
%ADD48RoundRect,0.250000X1.000000X0.650000X-1.000000X0.650000X-1.000000X-0.650000X1.000000X-0.650000X0*%
%ADD49RoundRect,0.150000X-0.825000X-0.150000X0.825000X-0.150000X0.825000X0.150000X-0.825000X0.150000X0*%
%ADD50RoundRect,0.250000X-0.650000X0.325000X-0.650000X-0.325000X0.650000X-0.325000X0.650000X0.325000X0*%
%ADD51R,0.650000X1.220000*%
%ADD52RoundRect,0.150000X-0.150000X0.587500X-0.150000X-0.587500X0.150000X-0.587500X0.150000X0.587500X0*%
%ADD53RoundRect,0.250000X-0.600000X0.400000X-0.600000X-0.400000X0.600000X-0.400000X0.600000X0.400000X0*%
%ADD54RoundRect,0.150000X-0.150000X0.825000X-0.150000X-0.825000X0.150000X-0.825000X0.150000X0.825000X0*%
%ADD55RoundRect,0.250000X-1.000000X-0.650000X1.000000X-0.650000X1.000000X0.650000X-1.000000X0.650000X0*%
%ADD56RoundRect,0.250000X-0.350000X0.850000X-0.350000X-0.850000X0.350000X-0.850000X0.350000X0.850000X0*%
%ADD57RoundRect,0.249997X-2.650003X2.950003X-2.650003X-2.950003X2.650003X-2.950003X2.650003X2.950003X0*%
%ADD58RoundRect,0.250000X0.650000X-1.000000X0.650000X1.000000X-0.650000X1.000000X-0.650000X-1.000000X0*%
%ADD59RoundRect,0.250000X0.400000X0.600000X-0.400000X0.600000X-0.400000X-0.600000X0.400000X-0.600000X0*%
%ADD60RoundRect,0.250000X0.850000X0.350000X-0.850000X0.350000X-0.850000X-0.350000X0.850000X-0.350000X0*%
%ADD61RoundRect,0.249997X2.950003X2.650003X-2.950003X2.650003X-2.950003X-2.650003X2.950003X-2.650003X0*%
G04 APERTURE END LIST*
D10*
%TO.C,RV6*%
X106934000Y-111007750D03*
X106934000Y-108467750D03*
X106934000Y-105927750D03*
%TD*%
D11*
%TO.C,J15*%
X62201100Y-138591750D03*
D12*
X59661100Y-138591750D03*
X57121100Y-138591750D03*
X54581100Y-138591750D03*
X52041100Y-138591750D03*
X49501100Y-138591750D03*
X46961100Y-138591750D03*
X44421100Y-138591750D03*
X41881100Y-138591750D03*
%TD*%
D13*
%TO.C,U1*%
X105664000Y-136779000D03*
D14*
X106934000Y-136779000D03*
X108204000Y-136779000D03*
%TD*%
D15*
%TO.C,J16*%
X29943100Y-96935750D03*
D16*
X33443100Y-96935750D03*
%TD*%
D11*
%TO.C,J25*%
X164942000Y-23689000D03*
D12*
X167482000Y-23689000D03*
%TD*%
D17*
%TO.C,J22*%
X114554000Y-121239000D03*
D18*
X114554000Y-128739000D03*
%TD*%
D19*
%TO.C,Q10*%
X112522000Y-108479000D03*
D20*
X112522000Y-111019000D03*
X112522000Y-113559000D03*
%TD*%
D21*
%TO.C,J26*%
X180496000Y-27967500D03*
D22*
X187996000Y-27967500D03*
%TD*%
D23*
%TO.C,SW7*%
X178712000Y-98734000D03*
X172212000Y-98734000D03*
X178712000Y-94234000D03*
X172212000Y-94234000D03*
%TD*%
D11*
%TO.C,J8*%
X52776600Y-95965250D03*
D12*
X52776600Y-93425250D03*
%TD*%
D10*
%TO.C,RV1*%
X62326600Y-89508250D03*
X59786600Y-89508250D03*
X57246600Y-89508250D03*
%TD*%
D11*
%TO.C,J6*%
X36927350Y-120904000D03*
D12*
X34387350Y-120904000D03*
%TD*%
D24*
%TO.C,Q5*%
X56888500Y-21963500D03*
D25*
X59428500Y-21963500D03*
X61968500Y-21963500D03*
%TD*%
D11*
%TO.C,U8*%
X92681100Y-111921750D03*
D12*
X90141100Y-111921750D03*
X87601100Y-111921750D03*
X85061100Y-111921750D03*
X82521100Y-111921750D03*
X79981100Y-111921750D03*
X77441100Y-111921750D03*
X74901100Y-111921750D03*
X72361100Y-111921750D03*
X69821100Y-111921750D03*
X67281100Y-111921750D03*
X64741100Y-111921750D03*
X62201100Y-111921750D03*
X59661100Y-111921750D03*
X57121100Y-111921750D03*
X54581100Y-111921750D03*
X52041100Y-111921750D03*
X49501100Y-111921750D03*
X46961100Y-111921750D03*
X44421100Y-111921750D03*
X44421100Y-127161750D03*
X46961100Y-127161750D03*
X49501100Y-127161750D03*
X52041100Y-127161750D03*
X54581100Y-127161750D03*
X57121100Y-127161750D03*
X59661100Y-127161750D03*
X62201100Y-127161750D03*
X64741100Y-127161750D03*
X67281100Y-127161750D03*
X69821100Y-127161750D03*
X72361100Y-127161750D03*
X74901100Y-127161750D03*
X77441100Y-127161750D03*
X79981100Y-127161750D03*
X82521100Y-127161750D03*
X85061100Y-127161750D03*
X87601100Y-127161750D03*
X90141100Y-127161750D03*
D11*
X92681100Y-127161750D03*
%TD*%
D26*
%TO.C,SW1*%
X182764000Y-81752000D03*
D27*
X182764000Y-76752000D03*
X182764000Y-79252000D03*
X168264000Y-81752000D03*
X168264000Y-76752000D03*
D28*
X175264000Y-84852000D03*
X175264000Y-73652000D03*
%TD*%
D29*
%TO.C,U6*%
X121031250Y-46482000D03*
D30*
X121031250Y-49022000D03*
X121031250Y-51562000D03*
X128651250Y-51562000D03*
X128651250Y-49022000D03*
X128651250Y-46482000D03*
%TD*%
D15*
%TO.C,D7*%
X62984500Y-40124500D03*
D31*
X52824500Y-40124500D03*
%TD*%
D23*
%TO.C,SW5*%
X148994000Y-98734000D03*
X142494000Y-98734000D03*
X148994000Y-94234000D03*
X142494000Y-94234000D03*
%TD*%
D32*
%TO.C,J11*%
X102957750Y-31735000D03*
D18*
X102957750Y-24235000D03*
%TD*%
D11*
%TO.C,J13*%
X87855100Y-138591750D03*
D12*
X85315100Y-138591750D03*
X82775100Y-138591750D03*
X80235100Y-138591750D03*
X77695100Y-138591750D03*
X75155100Y-138591750D03*
X72615100Y-138591750D03*
X70075100Y-138591750D03*
X67535100Y-138591750D03*
%TD*%
D10*
%TO.C,RV4*%
X100659000Y-138309000D03*
X100659000Y-135769000D03*
X100659000Y-133229000D03*
%TD*%
D23*
%TO.C,SW8*%
X148994000Y-123590000D03*
X142494000Y-123590000D03*
X148994000Y-119090000D03*
X142494000Y-119090000D03*
%TD*%
D32*
%TO.C,J10*%
X102997250Y-49455000D03*
D18*
X102997250Y-41955000D03*
%TD*%
D33*
%TO.C,C8*%
X102870000Y-128672000D03*
D27*
X102870000Y-123672000D03*
%TD*%
D32*
%TO.C,J4*%
X36822500Y-50418500D03*
D18*
X36822500Y-42918500D03*
%TD*%
D23*
%TO.C,SW6*%
X148994000Y-111180000D03*
X142494000Y-111180000D03*
X148994000Y-106680000D03*
X142494000Y-106680000D03*
%TD*%
D34*
%TO.C,K1*%
X184404000Y-35786000D03*
X190404000Y-49986000D03*
X178404000Y-49986000D03*
X178404000Y-37786000D03*
X190404000Y-37786000D03*
%TD*%
D29*
%TO.C,U3*%
X55349500Y-47251500D03*
D30*
X55349500Y-49791500D03*
X55349500Y-52331500D03*
X62969500Y-52331500D03*
X62969500Y-49791500D03*
X62969500Y-47251500D03*
%TD*%
D32*
%TO.C,J17*%
X44635600Y-101955750D03*
D18*
X44635600Y-94455750D03*
%TD*%
D11*
%TO.C,J9*%
X114960250Y-49261000D03*
D12*
X114960250Y-51801000D03*
%TD*%
D11*
%TO.C,J21*%
X106709600Y-95876750D03*
D12*
X109249600Y-95876750D03*
X111789600Y-95876750D03*
X114329600Y-95876750D03*
X116869600Y-95876750D03*
%TD*%
D16*
%TO.C,R34*%
X73652500Y-52702500D03*
D31*
X73652500Y-22222500D03*
%TD*%
D23*
%TO.C,SW3*%
X178750000Y-111398000D03*
X172250000Y-111398000D03*
X178750000Y-106898000D03*
X172250000Y-106898000D03*
%TD*%
D26*
%TO.C,SW4*%
X153300000Y-81765000D03*
D27*
X153300000Y-76765000D03*
X153300000Y-79265000D03*
X138800000Y-81765000D03*
X138800000Y-76765000D03*
D28*
X145800000Y-84865000D03*
X145800000Y-73665000D03*
%TD*%
D32*
%TO.C,J19*%
X92700100Y-76004750D03*
D18*
X92700100Y-68504750D03*
%TD*%
D11*
%TO.C,J23*%
X39975350Y-66807000D03*
D12*
X42515350Y-66807000D03*
%TD*%
D21*
%TO.C,J18*%
X72733600Y-62888500D03*
D22*
X80233600Y-62888500D03*
%TD*%
D23*
%TO.C,SW2*%
X178750000Y-123880000D03*
X172250000Y-123880000D03*
X178750000Y-119380000D03*
X172250000Y-119380000D03*
%TD*%
D11*
%TO.C,J40*%
X106808100Y-119374750D03*
D12*
X106808100Y-116834750D03*
X106808100Y-114294750D03*
%TD*%
D32*
%TO.C,J20*%
X75086600Y-81278750D03*
D18*
X75086600Y-73778750D03*
%TD*%
D11*
%TO.C,J1*%
X75848600Y-95754750D03*
D12*
X75848600Y-93214750D03*
%TD*%
D32*
%TO.C,J5*%
X36822500Y-32257500D03*
D18*
X36822500Y-24757500D03*
%TD*%
D10*
%TO.C,RV5*%
X44800600Y-83920250D03*
X44800600Y-86460250D03*
X44800600Y-89000250D03*
%TD*%
D24*
%TO.C,Q7*%
X119425250Y-22083000D03*
D25*
X121965250Y-22083000D03*
X124505250Y-22083000D03*
%TD*%
D11*
%TO.C,J24*%
X36927350Y-111413750D03*
D12*
X34387350Y-111413750D03*
%TD*%
D32*
%TO.C,J12*%
X169093500Y-49664000D03*
D18*
X169093500Y-42164000D03*
%TD*%
D16*
%TO.C,R45*%
X139065250Y-52060000D03*
D31*
X139065250Y-21580000D03*
%TD*%
D11*
%TO.C,J2*%
X91665100Y-140877750D03*
D12*
X91665100Y-138337750D03*
X91665100Y-135797750D03*
X91665100Y-133257750D03*
%TD*%
D11*
%TO.C,J7*%
X49547500Y-49542500D03*
D12*
X49547500Y-52082500D03*
%TD*%
D10*
%TO.C,RV2*%
X110011600Y-89526750D03*
X107471600Y-89526750D03*
X104931600Y-89526750D03*
%TD*%
D35*
%TO.C,R57*%
X30985100Y-83727750D03*
X27885100Y-83727750D03*
%TD*%
%TO.C,R7*%
X84536100Y-80156750D03*
X81436100Y-80156750D03*
%TD*%
D36*
%TO.C,R2*%
X66110600Y-89178000D03*
X69210600Y-89178000D03*
%TD*%
D37*
%TO.C,D9*%
X68539000Y-106066000D03*
X70739000Y-106066000D03*
%TD*%
D38*
%TO.C,C23*%
X36039100Y-71994750D03*
X36039100Y-69044750D03*
%TD*%
D39*
%TO.C,R88*%
X53826800Y-100224000D03*
X53826800Y-103324000D03*
%TD*%
D40*
%TO.C,D30*%
X75184000Y-115507000D03*
X75184000Y-117707000D03*
%TD*%
D36*
%TO.C,R21*%
X104346800Y-79519150D03*
X107446800Y-79519150D03*
%TD*%
D41*
%TO.C,Q4*%
X82347100Y-91901750D03*
X82347100Y-93801750D03*
X79727100Y-92851750D03*
%TD*%
D42*
%TO.C,R20*%
X102079100Y-75023950D03*
X102079100Y-71923950D03*
%TD*%
D39*
%TO.C,R31*%
X107442000Y-99182000D03*
X107442000Y-102282000D03*
%TD*%
%TO.C,R39*%
X39847600Y-84021250D03*
X39847600Y-87121250D03*
%TD*%
D35*
%TO.C,R25*%
X100258600Y-99846000D03*
X97158600Y-99846000D03*
%TD*%
%TO.C,R60*%
X136531000Y-98785000D03*
X133431000Y-98785000D03*
%TD*%
D11*
%TO.C,J3*%
X186080000Y-67543000D03*
D12*
X183540000Y-67543000D03*
X181000000Y-67543000D03*
X178460000Y-67543000D03*
X175920000Y-67543000D03*
X173380000Y-67543000D03*
X170840000Y-67543000D03*
X168300000Y-67543000D03*
X165760000Y-67543000D03*
%TD*%
D38*
%TO.C,C10*%
X153416000Y-91054000D03*
X153416000Y-88104000D03*
%TD*%
D39*
%TO.C,R15*%
X77820600Y-100277250D03*
X77820600Y-103377250D03*
%TD*%
%TO.C,R43*%
X62869200Y-100219550D03*
X62869200Y-103319550D03*
%TD*%
D35*
%TO.C,R91*%
X109119000Y-125624000D03*
X106019000Y-125624000D03*
%TD*%
%TO.C,R72*%
X157073000Y-117312000D03*
X153973000Y-117312000D03*
%TD*%
%TO.C,R8*%
X88429100Y-86501750D03*
X85329100Y-86501750D03*
%TD*%
D36*
%TO.C,R62*%
X173964000Y-80816000D03*
X177064000Y-80816000D03*
%TD*%
D35*
%TO.C,R81*%
X185674000Y-111612000D03*
X182574000Y-111612000D03*
%TD*%
D43*
%TO.C,U7*%
X36547100Y-80171750D03*
X35277100Y-80171750D03*
X34007100Y-80171750D03*
X32737100Y-80171750D03*
X32737100Y-75221750D03*
X34007100Y-75221750D03*
X35277100Y-75221750D03*
X36547100Y-75221750D03*
%TD*%
D36*
%TO.C,R66*%
X182092000Y-124185000D03*
X185192000Y-124185000D03*
%TD*%
D39*
%TO.C,R49*%
X153420000Y-70869000D03*
X153420000Y-73969000D03*
%TD*%
%TO.C,R77*%
X56994100Y-115197750D03*
X56994100Y-118297750D03*
%TD*%
D42*
%TO.C,R12*%
X81376600Y-103377250D03*
X81376600Y-100277250D03*
%TD*%
D35*
%TO.C,R59*%
X51659350Y-66040000D03*
X48559350Y-66040000D03*
%TD*%
D44*
%TO.C,D25*%
X68580000Y-108479000D03*
X66380000Y-108479000D03*
%TD*%
D35*
%TO.C,R28*%
X51363600Y-108068750D03*
X48263600Y-108068750D03*
%TD*%
%TO.C,R95*%
X185599000Y-98785000D03*
X182499000Y-98785000D03*
%TD*%
D40*
%TO.C,D5*%
X88519000Y-105644000D03*
X88519000Y-107844000D03*
%TD*%
D42*
%TO.C,R50*%
X157988000Y-90875000D03*
X157988000Y-87775000D03*
%TD*%
D39*
%TO.C,R27*%
X92231600Y-100295750D03*
X92231600Y-103395750D03*
%TD*%
D36*
%TO.C,R70*%
X133578000Y-111216000D03*
X136678000Y-111216000D03*
%TD*%
D45*
%TO.C,D13*%
X34007100Y-100777750D03*
X34007100Y-104777750D03*
%TD*%
D35*
%TO.C,R64*%
X168061000Y-87340000D03*
X164961000Y-87340000D03*
%TD*%
D42*
%TO.C,R23*%
X113567600Y-81424750D03*
X113567600Y-78324750D03*
%TD*%
D36*
%TO.C,R5*%
X83043100Y-83707750D03*
X86143100Y-83707750D03*
%TD*%
D35*
%TO.C,R22*%
X109682000Y-69155950D03*
X106582000Y-69155950D03*
%TD*%
D42*
%TO.C,R68*%
X73730600Y-103250250D03*
X73730600Y-100150250D03*
%TD*%
D46*
%TO.C,C7*%
X97155600Y-64156000D03*
X100105600Y-64156000D03*
%TD*%
D35*
%TO.C,R92*%
X109119000Y-122449000D03*
X106019000Y-122449000D03*
%TD*%
%TO.C,R76*%
X51178100Y-104174750D03*
X48078100Y-104174750D03*
%TD*%
D40*
%TO.C,D31*%
X77724000Y-105474000D03*
X77724000Y-107674000D03*
%TD*%
D36*
%TO.C,R93*%
X93954000Y-109114000D03*
X97054000Y-109114000D03*
%TD*%
D35*
%TO.C,R73*%
X147294000Y-115280000D03*
X144194000Y-115280000D03*
%TD*%
D46*
%TO.C,C1*%
X88929600Y-79620750D03*
X91879600Y-79620750D03*
%TD*%
D35*
%TO.C,R96*%
X169305600Y-72195000D03*
X166205600Y-72195000D03*
%TD*%
D47*
%TO.C,C18*%
X49960100Y-115477750D03*
X47010100Y-115477750D03*
%TD*%
D44*
%TO.C,D27*%
X75014000Y-107209000D03*
X72814000Y-107209000D03*
%TD*%
D48*
%TO.C,D19*%
X139177000Y-121376000D03*
X135177000Y-121376000D03*
%TD*%
D35*
%TO.C,R29*%
X94514000Y-116099000D03*
X91414000Y-116099000D03*
%TD*%
D45*
%TO.C,D8*%
X43531350Y-71660000D03*
X43531350Y-75660000D03*
%TD*%
D46*
%TO.C,C2*%
X54483600Y-66666750D03*
X57433600Y-66666750D03*
%TD*%
D36*
%TO.C,R67*%
X166140800Y-109199000D03*
X169240800Y-109199000D03*
%TD*%
D39*
%TO.C,R18*%
X180049200Y-70340200D03*
X180049200Y-73440200D03*
%TD*%
D45*
%TO.C,D12*%
X29181100Y-88871750D03*
X29181100Y-92871750D03*
%TD*%
D39*
%TO.C,R17*%
X186690000Y-73678000D03*
X186690000Y-76778000D03*
%TD*%
D49*
%TO.C,U4*%
X47216600Y-79348250D03*
X47216600Y-78078250D03*
X47216600Y-76808250D03*
X47216600Y-75538250D03*
X52166600Y-75538250D03*
X52166600Y-76808250D03*
X52166600Y-78078250D03*
X52166600Y-79348250D03*
%TD*%
D35*
%TO.C,R30*%
X109119000Y-128799000D03*
X106019000Y-128799000D03*
%TD*%
D40*
%TO.C,D6*%
X77723998Y-115507000D03*
X77723998Y-117707000D03*
%TD*%
D50*
%TO.C,C4*%
X156845000Y-70705000D03*
X156845000Y-73655000D03*
%TD*%
%TO.C,C5*%
X186944000Y-81881000D03*
X186944000Y-84831000D03*
%TD*%
D48*
%TO.C,D21*%
X137870000Y-95214000D03*
X133870000Y-95214000D03*
%TD*%
%TO.C,D17*%
X168282400Y-92166000D03*
X164282400Y-92166000D03*
%TD*%
D36*
%TO.C,R83*%
X80717100Y-131479750D03*
X83817100Y-131479750D03*
%TD*%
D51*
%TO.C,Q3*%
X91009100Y-82651750D03*
X92909100Y-82651750D03*
X91959100Y-85271750D03*
%TD*%
D36*
%TO.C,R48*%
X177520000Y-76752000D03*
X180620000Y-76752000D03*
%TD*%
D42*
%TO.C,R55*%
X30959100Y-72069750D03*
X30959100Y-68969750D03*
%TD*%
D36*
%TO.C,R9*%
X59708600Y-84200250D03*
X62808600Y-84200250D03*
%TD*%
D35*
%TO.C,R71*%
X155676000Y-121376000D03*
X152576000Y-121376000D03*
%TD*%
%TO.C,R61*%
X155930000Y-111216000D03*
X152830000Y-111216000D03*
%TD*%
D36*
%TO.C,R10*%
X65662600Y-85368000D03*
X68762600Y-85368000D03*
%TD*%
D35*
%TO.C,R16*%
X69210600Y-77824250D03*
X66110600Y-77824250D03*
%TD*%
D52*
%TO.C,Q11*%
X99314000Y-109749000D03*
X101214000Y-109749000D03*
X100264000Y-111624000D03*
%TD*%
D42*
%TO.C,R74*%
X156845000Y-79191000D03*
X156845000Y-76091000D03*
%TD*%
D53*
%TO.C,D24*%
X37494600Y-97706750D03*
X37494600Y-101206750D03*
%TD*%
D42*
%TO.C,R11*%
X66517600Y-103250250D03*
X66517600Y-100150250D03*
%TD*%
D38*
%TO.C,C16*%
X97028000Y-94206000D03*
X97028000Y-91256000D03*
%TD*%
D40*
%TO.C,D4*%
X84963000Y-105558000D03*
X84963000Y-107758000D03*
%TD*%
D42*
%TO.C,R79*%
X176626000Y-33113000D03*
X176626000Y-30013000D03*
%TD*%
D47*
%TO.C,C12*%
X51101600Y-71982250D03*
X48151600Y-71982250D03*
%TD*%
D52*
%TO.C,Q6*%
X94554000Y-118971500D03*
X96454000Y-118971500D03*
X95504000Y-120846500D03*
%TD*%
D42*
%TO.C,R54*%
X70174600Y-103250250D03*
X70174600Y-100150250D03*
%TD*%
D36*
%TO.C,R82*%
X166038000Y-96738000D03*
X169138000Y-96738000D03*
%TD*%
D41*
%TO.C,Q8*%
X170958000Y-24766000D03*
X170958000Y-22866000D03*
X173578000Y-23816000D03*
%TD*%
D39*
%TO.C,R4*%
X56484600Y-74006750D03*
X56484600Y-77106750D03*
%TD*%
D35*
%TO.C,R52*%
X135154000Y-75990000D03*
X132054000Y-75990000D03*
%TD*%
%TO.C,R51*%
X153315000Y-85388000D03*
X150215000Y-85388000D03*
%TD*%
D39*
%TO.C,R84*%
X41304600Y-96356750D03*
X41304600Y-99456750D03*
%TD*%
D54*
%TO.C,U5*%
X59099600Y-75235250D03*
X60369600Y-75235250D03*
X61639600Y-75235250D03*
X62909600Y-75235250D03*
X62909600Y-80185250D03*
X61639600Y-80185250D03*
X60369600Y-80185250D03*
X59099600Y-80185250D03*
%TD*%
D42*
%TO.C,R85*%
X88548600Y-103268750D03*
X88548600Y-100168750D03*
%TD*%
D39*
%TO.C,R41*%
X62834600Y-93800250D03*
X62834600Y-96900250D03*
%TD*%
D35*
%TO.C,R63*%
X173762000Y-78022000D03*
X170662000Y-78022000D03*
%TD*%
D47*
%TO.C,C17*%
X86662350Y-119380000D03*
X83712350Y-119380000D03*
%TD*%
D55*
%TO.C,D29*%
X111538000Y-103272000D03*
X115538000Y-103272000D03*
%TD*%
D36*
%TO.C,R89*%
X83637350Y-122936000D03*
X86737350Y-122936000D03*
%TD*%
D46*
%TO.C,C11*%
X111330600Y-99940750D03*
X114280600Y-99940750D03*
%TD*%
D56*
%TO.C,Q9*%
X168249000Y-28081000D03*
D57*
X170529000Y-34381000D03*
D56*
X172809000Y-28081000D03*
%TD*%
D58*
%TO.C,D15*%
X28673100Y-79631750D03*
X28673100Y-75631750D03*
%TD*%
D36*
%TO.C,R1*%
X66172100Y-74014250D03*
X69272100Y-74014250D03*
%TD*%
D35*
%TO.C,R42*%
X59304600Y-93844750D03*
X56204600Y-93844750D03*
%TD*%
D36*
%TO.C,R26*%
X97158600Y-96544000D03*
X100258600Y-96544000D03*
%TD*%
D42*
%TO.C,R37*%
X39975350Y-80290000D03*
X39975350Y-77190000D03*
%TD*%
D35*
%TO.C,R33*%
X96956600Y-105782750D03*
X93856600Y-105782750D03*
%TD*%
D46*
%TO.C,C9*%
X112444000Y-124989000D03*
X115394000Y-124989000D03*
%TD*%
D35*
%TO.C,R24*%
X110008000Y-65553000D03*
X106908000Y-65553000D03*
%TD*%
D36*
%TO.C,R6*%
X85329100Y-89549750D03*
X88429100Y-89549750D03*
%TD*%
D45*
%TO.C,D14*%
X28927100Y-100777750D03*
X28927100Y-104777750D03*
%TD*%
D42*
%TO.C,R40*%
X49880600Y-88772250D03*
X49880600Y-85672250D03*
%TD*%
D39*
%TO.C,R47*%
X179465000Y-79281000D03*
X179465000Y-82381000D03*
%TD*%
%TO.C,R97*%
X86742100Y-62441750D03*
X86742100Y-65541750D03*
%TD*%
%TO.C,R56*%
X37494600Y-89524750D03*
X37494600Y-92624750D03*
%TD*%
D42*
%TO.C,R35*%
X101726998Y-117750000D03*
X101726998Y-114650000D03*
%TD*%
D36*
%TO.C,R46*%
X144627000Y-70148000D03*
X147727000Y-70148000D03*
%TD*%
D48*
%TO.C,D22*%
X168148000Y-112882000D03*
X164148000Y-112882000D03*
%TD*%
D49*
%TO.C,U2*%
X105555400Y-76293350D03*
X105555400Y-75023350D03*
X105555400Y-73753350D03*
X105555400Y-72483350D03*
X110505400Y-72483350D03*
X110505400Y-73753350D03*
X110505400Y-75023350D03*
X110505400Y-76293350D03*
%TD*%
D39*
%TO.C,R38*%
X43530600Y-78814250D03*
X43530600Y-81914250D03*
%TD*%
D45*
%TO.C,D11*%
X34007100Y-89125750D03*
X34007100Y-93125750D03*
%TD*%
D36*
%TO.C,R80*%
X87151000Y-130266450D03*
X90251000Y-130266450D03*
%TD*%
D48*
%TO.C,D18*%
X168116000Y-119867000D03*
X164116000Y-119867000D03*
%TD*%
%TO.C,D1*%
X64072600Y-70204250D03*
X60072600Y-70204250D03*
%TD*%
D47*
%TO.C,C6*%
X183339000Y-85642000D03*
X180389000Y-85642000D03*
%TD*%
D39*
%TO.C,R90*%
X156972000Y-81679000D03*
X156972000Y-84779000D03*
%TD*%
D35*
%TO.C,R53*%
X155930000Y-98770000D03*
X152830000Y-98770000D03*
%TD*%
D39*
%TO.C,R32*%
X102489000Y-103470750D03*
X102489000Y-106570750D03*
%TD*%
D40*
%TO.C,D28*%
X69469000Y-115634000D03*
X69469000Y-117834000D03*
%TD*%
D39*
%TO.C,R86*%
X84992600Y-100295750D03*
X84992600Y-103395750D03*
%TD*%
D48*
%TO.C,D16*%
X168102000Y-102849000D03*
X164102000Y-102849000D03*
%TD*%
D39*
%TO.C,R94*%
X80899000Y-114904000D03*
X80899000Y-118004000D03*
%TD*%
%TO.C,R69*%
X72644000Y-114904000D03*
X72644000Y-118004000D03*
%TD*%
D36*
%TO.C,R19*%
X183616000Y-88737000D03*
X186716000Y-88737000D03*
%TD*%
D39*
%TO.C,R36*%
X39975350Y-70078000D03*
X39975350Y-73178000D03*
%TD*%
D36*
%TO.C,R65*%
X164312000Y-124312000D03*
X167412000Y-124312000D03*
%TD*%
D45*
%TO.C,D3*%
X99187000Y-67871000D03*
X99187000Y-71871000D03*
%TD*%
D42*
%TO.C,R78*%
X176626000Y-27652000D03*
X176626000Y-24552000D03*
%TD*%
D51*
%TO.C,Q2*%
X90943100Y-87263750D03*
X92843100Y-87263750D03*
X91893100Y-89883750D03*
%TD*%
D42*
%TO.C,R58*%
X33753100Y-85785750D03*
X33753100Y-82685750D03*
%TD*%
D36*
%TO.C,R75*%
X84273100Y-135143250D03*
X87373100Y-135143250D03*
%TD*%
D59*
%TO.C,D10*%
X44676000Y-105812000D03*
X41176000Y-105812000D03*
%TD*%
D40*
%TO.C,D26*%
X66294000Y-115634000D03*
X66294000Y-117834000D03*
%TD*%
D36*
%TO.C,R3*%
X53358600Y-84200250D03*
X56458600Y-84200250D03*
%TD*%
D42*
%TO.C,R87*%
X48924600Y-97704750D03*
X48924600Y-94604750D03*
%TD*%
D60*
%TO.C,Q1*%
X89123600Y-71601250D03*
D61*
X82823600Y-73881250D03*
D60*
X89123600Y-76161250D03*
%TD*%
D45*
%TO.C,D20*%
X135132000Y-82135000D03*
X135132000Y-86135000D03*
%TD*%
D48*
%TO.C,D23*%
X137838000Y-106898000D03*
X133838000Y-106898000D03*
%TD*%
D42*
%TO.C,R44*%
X57357400Y-103324000D03*
X57357400Y-100224000D03*
%TD*%
D38*
%TO.C,C3*%
X71851600Y-79045250D03*
X71851600Y-76095250D03*
%TD*%
D11*
%TO.C,J14*%
X156839000Y-66933000D03*
D12*
X154299000Y-66933000D03*
X151759000Y-66933000D03*
X149219000Y-66933000D03*
X146679000Y-66933000D03*
X144139000Y-66933000D03*
X141599000Y-66933000D03*
X139059000Y-66933000D03*
X136519000Y-66933000D03*
%TD*%
D40*
%TO.C,D2*%
X60100600Y-102299000D03*
X60100600Y-104499000D03*
%TD*%
D36*
%TO.C,R14*%
X68456600Y-96130750D03*
X71556600Y-96130750D03*
%TD*%
D39*
%TO.C,R13*%
X149733000Y-77727000D03*
X149733000Y-80827000D03*
%TD*%
M02*
