%TF.GenerationSoftware,KiCad,Pcbnew,8.0.2*%
%TF.CreationDate,2025-05-09T17:21:55+03:00*%
%TF.ProjectId,Station,53746174-696f-46e2-9e6b-696361645f70,rev?*%
%TF.SameCoordinates,Original*%
%TF.FileFunction,Profile,NP*%
%FSLAX46Y46*%
G04 Gerber Fmt 4.6, Leading zero omitted, Abs format (unit mm)*
G04 Created by KiCad (PCBNEW 8.0.2) date 2025-05-09 17:21:55*
%MOMM*%
%LPD*%
G01*
G04 APERTURE LIST*
%TA.AperFunction,Profile*%
%ADD10C,0.100000*%
%TD*%
G04 APERTURE END LIST*
D10*
X152400000Y-56642000D02*
X88900000Y-56642000D01*
X87376000Y-56642000D02*
X24130000Y-56642000D01*
X122174000Y-58674000D02*
X199136000Y-58674000D01*
X120904000Y-142494000D02*
X23876000Y-142494000D01*
X87376000Y-18542000D02*
X87376000Y-56642000D01*
X152400000Y-18542000D02*
X152400000Y-56642000D01*
X154097250Y-20066000D02*
X202357250Y-20066000D01*
X23876000Y-58674000D02*
X24130000Y-58674000D01*
X122174000Y-128524000D02*
X122174000Y-58674000D01*
X88900000Y-18542000D02*
X152400000Y-18542000D01*
X24130000Y-18542000D02*
X87376000Y-18542000D01*
X23876000Y-142494000D02*
X23876000Y-58674000D01*
X202357250Y-55626000D02*
X154097250Y-55626000D01*
X199136000Y-128524000D02*
X122428000Y-128524000D01*
X122428000Y-128524000D02*
X122174000Y-128524000D01*
X24130000Y-58674000D02*
X120904000Y-58674000D01*
X88900000Y-56642000D02*
X88900000Y-18542000D01*
X120904000Y-58674000D02*
X120904000Y-142494000D01*
X199136000Y-58674000D02*
X199136000Y-128524000D01*
X202357250Y-20066000D02*
X202357250Y-55626000D01*
X154097250Y-55626000D02*
X154097250Y-20066000D01*
X55372000Y-56304000D02*
X55118000Y-56304000D01*
X24130000Y-56642000D02*
X24130000Y-18542000D01*
M02*
