%TF.GenerationSoftware,KiCad,Pcbnew,8.0.2*%
%TF.CreationDate,2025-04-12T12:52:08+03:00*%
%TF.ProjectId,Station,53746174-696f-46e2-9e6b-696361645f70,rev?*%
%TF.SameCoordinates,Original*%
%TF.FileFunction,Copper,L1,Top*%
%TF.FilePolarity,Positive*%
%FSLAX46Y46*%
G04 Gerber Fmt 4.6, Leading zero omitted, Abs format (unit mm)*
G04 Created by KiCad (PCBNEW 8.0.2) date 2025-04-12 12:52:08*
%MOMM*%
%LPD*%
G01*
G04 APERTURE LIST*
G04 Aperture macros list*
%AMRoundRect*
0 Rectangle with rounded corners*
0 $1 Rounding radius*
0 $2 $3 $4 $5 $6 $7 $8 $9 X,Y pos of 4 corners*
0 Add a 4 corners polygon primitive as box body*
4,1,4,$2,$3,$4,$5,$6,$7,$8,$9,$2,$3,0*
0 Add four circle primitives for the rounded corners*
1,1,$1+$1,$2,$3*
1,1,$1+$1,$4,$5*
1,1,$1+$1,$6,$7*
1,1,$1+$1,$8,$9*
0 Add four rect primitives between the rounded corners*
20,1,$1+$1,$2,$3,$4,$5,0*
20,1,$1+$1,$4,$5,$6,$7,0*
20,1,$1+$1,$6,$7,$8,$9,0*
20,1,$1+$1,$8,$9,$2,$3,0*%
G04 Aperture macros list end*
%TA.AperFunction,ComponentPad*%
%ADD10C,1.440000*%
%TD*%
%TA.AperFunction,ComponentPad*%
%ADD11R,1.700000X1.700000*%
%TD*%
%TA.AperFunction,ComponentPad*%
%ADD12O,1.700000X1.700000*%
%TD*%
%TA.AperFunction,ComponentPad*%
%ADD13R,1.050000X1.500000*%
%TD*%
%TA.AperFunction,ComponentPad*%
%ADD14O,1.050000X1.500000*%
%TD*%
%TA.AperFunction,ComponentPad*%
%ADD15R,2.400000X2.400000*%
%TD*%
%TA.AperFunction,ComponentPad*%
%ADD16C,2.400000*%
%TD*%
%TA.AperFunction,ComponentPad*%
%ADD17RoundRect,0.250000X-1.550000X0.750000X-1.550000X-0.750000X1.550000X-0.750000X1.550000X0.750000X0*%
%TD*%
%TA.AperFunction,ComponentPad*%
%ADD18O,3.600000X2.000000*%
%TD*%
%TA.AperFunction,ComponentPad*%
%ADD19R,2.000000X1.905000*%
%TD*%
%TA.AperFunction,ComponentPad*%
%ADD20O,2.000000X1.905000*%
%TD*%
%TA.AperFunction,ComponentPad*%
%ADD21RoundRect,0.250000X-0.750000X-1.550000X0.750000X-1.550000X0.750000X1.550000X-0.750000X1.550000X0*%
%TD*%
%TA.AperFunction,ComponentPad*%
%ADD22O,2.000000X3.600000*%
%TD*%
%TA.AperFunction,ComponentPad*%
%ADD23C,2.000000*%
%TD*%
%TA.AperFunction,ComponentPad*%
%ADD24R,1.905000X2.000000*%
%TD*%
%TA.AperFunction,ComponentPad*%
%ADD25O,1.905000X2.000000*%
%TD*%
%TA.AperFunction,ComponentPad*%
%ADD26RoundRect,0.250000X0.550000X0.550000X-0.550000X0.550000X-0.550000X-0.550000X0.550000X-0.550000X0*%
%TD*%
%TA.AperFunction,ComponentPad*%
%ADD27C,1.600000*%
%TD*%
%TA.AperFunction,ComponentPad*%
%ADD28O,4.100000X3.000000*%
%TD*%
%TA.AperFunction,ComponentPad*%
%ADD29R,2.400000X1.600000*%
%TD*%
%TA.AperFunction,ComponentPad*%
%ADD30O,2.400000X1.600000*%
%TD*%
%TA.AperFunction,ComponentPad*%
%ADD31O,2.400000X2.400000*%
%TD*%
%TA.AperFunction,ComponentPad*%
%ADD32RoundRect,0.250000X1.550000X-0.750000X1.550000X0.750000X-1.550000X0.750000X-1.550000X-0.750000X0*%
%TD*%
%TA.AperFunction,ComponentPad*%
%ADD33R,1.600000X1.600000*%
%TD*%
%TA.AperFunction,ComponentPad*%
%ADD34C,3.000000*%
%TD*%
%TA.AperFunction,ViaPad*%
%ADD35C,5.000000*%
%TD*%
G04 APERTURE END LIST*
D10*
%TO.P,RV6,1,1*%
%TO.N,Net-(J40-Pin_2)*%
X106934000Y-111007750D03*
%TO.P,RV6,2,2*%
%TO.N,Net-(Q6-C)*%
X106934000Y-108467750D03*
%TO.P,RV6,3,3*%
X106934000Y-105927750D03*
%TD*%
D11*
%TO.P,J15,1,Pin_1*%
%TO.N,+3V3*%
X62201100Y-138591750D03*
D12*
%TO.P,J15,2,Pin_2*%
%TO.N,/MController/E2B3*%
X59661100Y-138591750D03*
%TO.P,J15,3,Pin_3*%
%TO.N,/MController/E2B2*%
X57121100Y-138591750D03*
%TO.P,J15,4,Pin_4*%
%TO.N,/MController/E2B1*%
X54581100Y-138591750D03*
%TO.P,J15,5,Pin_5*%
%TO.N,/MController/E2S*%
X52041100Y-138591750D03*
%TO.P,J15,6,Pin_6*%
%TO.N,/MController/E2BI*%
X49501100Y-138591750D03*
%TO.P,J15,7,Pin_7*%
%TO.N,/MController/E2B*%
X46961100Y-138591750D03*
%TO.P,J15,8,Pin_8*%
%TO.N,/MController/E2A*%
X44421100Y-138591750D03*
%TO.P,J15,9,Pin_9*%
%TO.N,GND*%
X41881100Y-138591750D03*
%TD*%
D13*
%TO.P,U1,1,REF*%
%TO.N,Net-(U1-REF)*%
X105664000Y-136779000D03*
D14*
%TO.P,U1,2,A*%
%TO.N,Motor-*%
X106934000Y-136779000D03*
%TO.P,U1,3,K*%
%TO.N,Net-(J40-Pin_1)*%
X108204000Y-136779000D03*
%TD*%
D15*
%TO.P,J16,1,Pin_1*%
%TO.N,/ZCD/AC *%
X29943100Y-96935750D03*
D16*
%TO.P,J16,2,Pin_2*%
%TO.N,/ZCD/~AC*%
X33443100Y-96935750D03*
%TD*%
D11*
%TO.P,J25,1,Pin_1*%
%TO.N,Net-(J25-Pin_1)*%
X164942000Y-23689000D03*
D12*
%TO.P,J25,2,Pin_2*%
%TO.N,Net-(J25-Pin_2)*%
X167482000Y-23689000D03*
%TD*%
D17*
%TO.P,J22,1,Pin_1*%
%TO.N,Net-(J22-Pin_1)*%
X114554000Y-121239000D03*
D18*
%TO.P,J22,2,Pin_2*%
%TO.N,Motor-*%
X114554000Y-128739000D03*
%TD*%
D19*
%TO.P,Q10,1,G*%
%TO.N,Net-(J40-Pin_2)*%
X112522000Y-108479000D03*
D20*
%TO.P,Q10,2,D*%
%TO.N,Net-(J22-Pin_1)*%
X112522000Y-111019000D03*
%TO.P,Q10,3,S*%
%TO.N,Motor+*%
X112522000Y-113559000D03*
%TD*%
D21*
%TO.P,J26,1,Pin_1*%
%TO.N,Net-(J26-Pin_1)*%
X180496000Y-27967500D03*
D22*
%TO.P,J26,2,Pin_2*%
%TO.N,Net-(J25-Pin_2)*%
X187996000Y-27967500D03*
%TD*%
D23*
%TO.P,SW7,1,1*%
%TO.N,Net-(D16-K)*%
X178712000Y-98734000D03*
X172212000Y-98734000D03*
%TO.P,SW7,2,2*%
%TO.N,/ENCODER/GND*%
X178712000Y-94234000D03*
X172212000Y-94234000D03*
%TD*%
D11*
%TO.P,J8,1,Pin_1*%
%TO.N,Net-(J8-Pin_1)*%
X52776600Y-95965250D03*
D12*
%TO.P,J8,2,Pin_2*%
%TO.N,GND*%
X52776600Y-93425250D03*
%TD*%
D10*
%TO.P,RV1,1,1*%
%TO.N,Net-(U5B--)*%
X62326600Y-89508250D03*
%TO.P,RV1,2,2*%
%TO.N,Net-(R3-Pad1)*%
X59786600Y-89508250D03*
%TO.P,RV1,3,3*%
X57246600Y-89508250D03*
%TD*%
D11*
%TO.P,J6,1,Pin_1*%
%TO.N,Net-(J6-Pin_1)*%
X36927350Y-120904000D03*
D12*
%TO.P,J6,2,Pin_2*%
%TO.N,GND*%
X34387350Y-120904000D03*
%TD*%
D24*
%TO.P,Q5,1,A1*%
%TO.N,Net-(J5-Pin_2)*%
X56888500Y-21963500D03*
D25*
%TO.P,Q5,2,A2*%
%TO.N,Net-(D7-A)*%
X59428500Y-21963500D03*
%TO.P,Q5,3,G*%
%TO.N,Net-(Q5-G)*%
X61968500Y-21963500D03*
%TD*%
D11*
%TO.P,U8,1,VB*%
%TO.N,unconnected-(U8-VB-Pad1)*%
X92681100Y-111921750D03*
D12*
%TO.P,U8,2,C13*%
%TO.N,/FAN/~FAN_FULL_Speed*%
X90141100Y-111921750D03*
%TO.P,U8,3,C14*%
%TO.N,/MController/ZCD*%
X87601100Y-111921750D03*
%TO.P,U8,4,C15*%
%TO.N,/FAN/FAN_OFF{slash}ON*%
X85061100Y-111921750D03*
%TO.P,U8,5,A0*%
%TO.N,/FAN/FAN_Speed_Analog*%
X82521100Y-111921750D03*
%TO.P,U8,6,A1*%
%TO.N,/FAN/FAN_Analog*%
X79981100Y-111921750D03*
%TO.P,U8,7,A2*%
%TO.N,/FAN/Gerkon*%
X77441100Y-111921750D03*
%TO.P,U8,8,A3*%
%TO.N,/MController/SOLDER_PWM*%
X74901100Y-111921750D03*
%TO.P,U8,9,A4*%
%TO.N,/MController/Solder_Full_Power*%
X72361100Y-111921750D03*
%TO.P,U8,10,A5*%
%TO.N,/MController/Vibration_Detection*%
X69821100Y-111921750D03*
%TO.P,U8,11,A6*%
%TO.N,/MController/Solder_Analog*%
X67281100Y-111921750D03*
%TO.P,U8,12,A7*%
%TO.N,/MController/TABLE_Analog*%
X64741100Y-111921750D03*
%TO.P,U8,13,B0*%
%TO.N,/MController/TABLE_Control+*%
X62201100Y-111921750D03*
%TO.P,U8,14,B1*%
%TO.N,/MController/ZCD*%
X59661100Y-111921750D03*
%TO.P,U8,15,B10*%
%TO.N,/MController/Reley_Control*%
X57121100Y-111921750D03*
%TO.P,U8,16,B11*%
%TO.N,/MController/FAN_Control+*%
X54581100Y-111921750D03*
%TO.P,U8,17,R*%
%TO.N,unconnected-(U8-R-Pad17)*%
X52041100Y-111921750D03*
%TO.P,U8,18,3V3*%
%TO.N,+3V3*%
X49501100Y-111921750D03*
%TO.P,U8,19,GND*%
%TO.N,GND*%
X46961100Y-111921750D03*
%TO.P,U8,20,GND*%
X44421100Y-111921750D03*
%TO.P,U8,21,B12*%
%TO.N,/MController/E2A*%
X44421100Y-127161750D03*
%TO.P,U8,22,B13*%
%TO.N,/MController/E2B*%
X46961100Y-127161750D03*
%TO.P,U8,23,B14*%
%TO.N,/MController/E2BI*%
X49501100Y-127161750D03*
%TO.P,U8,24,B15*%
%TO.N,/MController/E2S*%
X52041100Y-127161750D03*
%TO.P,U8,25,A8*%
%TO.N,/MController/E2B1*%
X54581100Y-127161750D03*
%TO.P,U8,26,A9*%
%TO.N,/MController/E2B2*%
X57121100Y-127161750D03*
%TO.P,U8,27,A10*%
%TO.N,/MController/E2B3*%
X59661100Y-127161750D03*
%TO.P,U8,28,A11*%
%TO.N,/MController/E1A*%
X62201100Y-127161750D03*
%TO.P,U8,29,A12*%
%TO.N,/MController/E1S*%
X64741100Y-127161750D03*
%TO.P,U8,30,A15*%
%TO.N,/MController/E1B*%
X67281100Y-127161750D03*
%TO.P,U8,31,B3*%
%TO.N,/MController/E1BI*%
X69821100Y-127161750D03*
%TO.P,U8,32,B4*%
%TO.N,/MController/E1B1*%
X72361100Y-127161750D03*
%TO.P,U8,33,B5*%
%TO.N,/MController/E1B2*%
X74901100Y-127161750D03*
%TO.P,U8,34,B6*%
%TO.N,/MController/SCL*%
X77441100Y-127161750D03*
%TO.P,U8,35,B7*%
%TO.N,/MController/SDA*%
X79981100Y-127161750D03*
%TO.P,U8,36,B8*%
%TO.N,/MController/E1B3*%
X82521100Y-127161750D03*
%TO.P,U8,37,B9*%
%TO.N,/FAN/~FAN_FULL_Speed*%
X85061100Y-127161750D03*
%TO.P,U8,38,5V*%
%TO.N,unconnected-(U8-5V-Pad38)*%
X87601100Y-127161750D03*
%TO.P,U8,39,GND*%
%TO.N,GND*%
X90141100Y-127161750D03*
D11*
%TO.P,U8,40,3V3*%
%TO.N,+3V3*%
X92681100Y-127161750D03*
%TD*%
D26*
%TO.P,SW1,A,A*%
%TO.N,Net-(C6-Pad1)*%
X182764000Y-81752000D03*
D27*
%TO.P,SW1,B,B*%
%TO.N,Net-(C5-Pad1)*%
X182764000Y-76752000D03*
%TO.P,SW1,C,C*%
%TO.N,/ENCODER/GND*%
X182764000Y-79252000D03*
%TO.P,SW1,S1,S1*%
%TO.N,Net-(D17-K)*%
X168264000Y-81752000D03*
%TO.P,SW1,S2,S2*%
%TO.N,/ENCODER/GND*%
X168264000Y-76752000D03*
D28*
%TO.P,SW1,SH*%
%TO.N,N/C*%
X175264000Y-84852000D03*
X175264000Y-73652000D03*
%TD*%
D29*
%TO.P,U6,1*%
%TO.N,/TABLE/TABLE_Control+*%
X121031250Y-46482000D03*
D30*
%TO.P,U6,2*%
%TO.N,/TABLE/TABLE_Control-*%
X121031250Y-49022000D03*
%TO.P,U6,3,NC*%
%TO.N,unconnected-(U6-NC-Pad3)*%
X121031250Y-51562000D03*
%TO.P,U6,4*%
%TO.N,Net-(R45-Pad1)*%
X128651250Y-51562000D03*
%TO.P,U6,5,NC*%
%TO.N,unconnected-(U6-NC-Pad5)*%
X128651250Y-49022000D03*
%TO.P,U6,6*%
%TO.N,Net-(J10-Pin_1)*%
X128651250Y-46482000D03*
%TD*%
D15*
%TO.P,D7,1,K*%
%TO.N,Net-(D7-K)*%
X62984500Y-40124500D03*
D31*
%TO.P,D7,2,A*%
%TO.N,Net-(D7-A)*%
X52824500Y-40124500D03*
%TD*%
D23*
%TO.P,SW5,1,1*%
%TO.N,Net-(D21-K)*%
X148994000Y-98734000D03*
X142494000Y-98734000D03*
%TO.P,SW5,2,2*%
%TO.N,/ENCODER2/GND*%
X148994000Y-94234000D03*
X142494000Y-94234000D03*
%TD*%
D32*
%TO.P,J11,1,Pin_1*%
%TO.N,Net-(J10-Pin_2)*%
X102957750Y-31735000D03*
D18*
%TO.P,J11,2,Pin_2*%
%TO.N,Net-(J11-Pin_2)*%
X102957750Y-24235000D03*
%TD*%
D11*
%TO.P,J13,1,Pin_1*%
%TO.N,GND*%
X87855100Y-138591750D03*
D12*
%TO.P,J13,2,Pin_2*%
%TO.N,/MController/E1B3*%
X85315100Y-138591750D03*
%TO.P,J13,3,Pin_3*%
%TO.N,/MController/E1B2*%
X82775100Y-138591750D03*
%TO.P,J13,4,Pin_4*%
%TO.N,/MController/E1B1*%
X80235100Y-138591750D03*
%TO.P,J13,5,Pin_5*%
%TO.N,/MController/E1BI*%
X77695100Y-138591750D03*
%TO.P,J13,6,Pin_6*%
%TO.N,/MController/E1B*%
X75155100Y-138591750D03*
%TO.P,J13,7,Pin_7*%
%TO.N,/MController/E1S*%
X72615100Y-138591750D03*
%TO.P,J13,8,Pin_8*%
%TO.N,/MController/E1A*%
X70075100Y-138591750D03*
%TO.P,J13,9,Pin_9*%
%TO.N,+3V3*%
X67535100Y-138591750D03*
%TD*%
D10*
%TO.P,RV4,1,1*%
%TO.N,Net-(J40-Pin_1)*%
X100659000Y-138309000D03*
%TO.P,RV4,2,2*%
%TO.N,Net-(U1-REF)*%
X100659000Y-135769000D03*
%TO.P,RV4,3,3*%
%TO.N,Motor-*%
X100659000Y-133229000D03*
%TD*%
D23*
%TO.P,SW8,1,1*%
%TO.N,Net-(D19-K)*%
X148994000Y-123590000D03*
X142494000Y-123590000D03*
%TO.P,SW8,2,2*%
%TO.N,/ENCODER2/GND*%
X148994000Y-119090000D03*
X142494000Y-119090000D03*
%TD*%
D32*
%TO.P,J10,1,Pin_1*%
%TO.N,Net-(J10-Pin_1)*%
X102997250Y-49455000D03*
D18*
%TO.P,J10,2,Pin_2*%
%TO.N,Net-(J10-Pin_2)*%
X102997250Y-41955000D03*
%TD*%
D33*
%TO.P,C8,1*%
%TO.N,Net-(J22-Pin_1)*%
X102870000Y-128672000D03*
D27*
%TO.P,C8,2*%
%TO.N,Motor-*%
X102870000Y-123672000D03*
%TD*%
D32*
%TO.P,J4,1,Pin_1*%
%TO.N,Net-(D7-A)*%
X36822500Y-50418500D03*
D18*
%TO.P,J4,2,Pin_2*%
%TO.N,Net-(J4-Pin_2)*%
X36822500Y-42918500D03*
%TD*%
D23*
%TO.P,SW6,1,1*%
%TO.N,Net-(D23-K)*%
X148994000Y-111180000D03*
X142494000Y-111180000D03*
%TO.P,SW6,2,2*%
%TO.N,/ENCODER2/GND*%
X148994000Y-106680000D03*
X142494000Y-106680000D03*
%TD*%
D34*
%TO.P,K1,11*%
%TO.N,Net-(J12-Pin_2)*%
X184404000Y-35786000D03*
%TO.P,K1,12*%
%TO.N,unconnected-(K1-Pad12)*%
X190404000Y-49986000D03*
%TO.P,K1,14*%
%TO.N,Net-(J12-Pin_1)*%
X178404000Y-49986000D03*
%TO.P,K1,A1*%
%TO.N,Net-(Q9-D1)*%
X178404000Y-37786000D03*
%TO.P,K1,A2*%
%TO.N,Net-(J25-Pin_2)*%
X190404000Y-37786000D03*
%TD*%
D29*
%TO.P,U3,1*%
%TO.N,/FAN/FAN_Control+*%
X55349500Y-47251500D03*
D30*
%TO.P,U3,2*%
%TO.N,/FAN/FAN_Control-*%
X55349500Y-49791500D03*
%TO.P,U3,3,NC*%
%TO.N,unconnected-(U3-NC-Pad3)*%
X55349500Y-52331500D03*
%TO.P,U3,4*%
%TO.N,Net-(Q5-G)*%
X62969500Y-52331500D03*
%TO.P,U3,5,NC*%
%TO.N,unconnected-(U3-NC-Pad5)*%
X62969500Y-49791500D03*
%TO.P,U3,6*%
%TO.N,Net-(R34-Pad1)*%
X62969500Y-47251500D03*
%TD*%
D32*
%TO.P,J17,1,Pin_1*%
%TO.N,+3V3*%
X44635600Y-101955750D03*
D18*
%TO.P,J17,2,Pin_2*%
%TO.N,GND*%
X44635600Y-94455750D03*
%TD*%
D11*
%TO.P,J9,1,Pin_1*%
%TO.N,/TABLE/TABLE_Control+*%
X114960250Y-49261000D03*
D12*
%TO.P,J9,2,Pin_2*%
%TO.N,/TABLE/TABLE_Control-*%
X114960250Y-51801000D03*
%TD*%
D11*
%TO.P,J21,1,Pin_1*%
%TO.N,Gerkon_in*%
X106709600Y-95876750D03*
D12*
%TO.P,J21,2,Pin_2*%
%TO.N,FAN_Termistor*%
X109249600Y-95876750D03*
%TO.P,J21,3,Pin_3*%
%TO.N,Motor+*%
X111789600Y-95876750D03*
%TO.P,J21,4,Pin_4*%
%TO.N,Motor-*%
X114329600Y-95876750D03*
%TO.P,J21,5,Pin_5*%
%TO.N,GND*%
X116869600Y-95876750D03*
%TD*%
D16*
%TO.P,R34,1*%
%TO.N,Net-(R34-Pad1)*%
X73652500Y-52702500D03*
D31*
%TO.P,R34,2*%
%TO.N,Net-(D7-K)*%
X73652500Y-22222500D03*
%TD*%
D23*
%TO.P,SW3,1,1*%
%TO.N,Net-(D22-K)*%
X178750000Y-111398000D03*
X172250000Y-111398000D03*
%TO.P,SW3,2,2*%
%TO.N,/ENCODER/GND*%
X178750000Y-106898000D03*
X172250000Y-106898000D03*
%TD*%
D26*
%TO.P,SW4,A,A*%
%TO.N,Net-(C10-Pad1)*%
X153300000Y-81765000D03*
D27*
%TO.P,SW4,B,B*%
%TO.N,Net-(C4-Pad1)*%
X153300000Y-76765000D03*
%TO.P,SW4,C,C*%
%TO.N,/ENCODER2/GND*%
X153300000Y-79265000D03*
%TO.P,SW4,S1,S1*%
%TO.N,Net-(D20-K)*%
X138800000Y-81765000D03*
%TO.P,SW4,S2,S2*%
%TO.N,/ENCODER2/GND*%
X138800000Y-76765000D03*
D28*
%TO.P,SW4,SH*%
%TO.N,N/C*%
X145800000Y-84865000D03*
X145800000Y-73665000D03*
%TD*%
D32*
%TO.P,J19,1,Pin_1*%
%TO.N,+24V*%
X92700100Y-76004750D03*
D18*
%TO.P,J19,2,Pin_2*%
%TO.N,GND*%
X92700100Y-68504750D03*
%TD*%
D11*
%TO.P,J23,1,Pin_1*%
%TO.N,Table_Termistor*%
X39975350Y-66807000D03*
D12*
%TO.P,J23,2,Pin_2*%
%TO.N,GND*%
X42515350Y-66807000D03*
%TD*%
D21*
%TO.P,J18,1,Pin_1*%
%TO.N,+5V*%
X72733600Y-62888500D03*
D22*
%TO.P,J18,2,Pin_2*%
%TO.N,GND*%
X80233600Y-62888500D03*
%TD*%
D23*
%TO.P,SW2,1,1*%
%TO.N,Net-(D18-K)*%
X178750000Y-123880000D03*
X172250000Y-123880000D03*
%TO.P,SW2,2,2*%
%TO.N,/ENCODER/GND*%
X178750000Y-119380000D03*
X172250000Y-119380000D03*
%TD*%
D11*
%TO.P,J40,1,Pin_1*%
%TO.N,Net-(J40-Pin_1)*%
X106808100Y-119374750D03*
D12*
%TO.P,J40,2,Pin_2*%
%TO.N,Net-(J40-Pin_2)*%
X106808100Y-116834750D03*
%TO.P,J40,3,Pin_3*%
X106808100Y-114294750D03*
%TD*%
D32*
%TO.P,J20,1,Pin_1*%
%TO.N,Net-(J20-Pin_1)*%
X75086600Y-81278750D03*
D18*
%TO.P,J20,2,Pin_2*%
%TO.N,GND*%
X75086600Y-73778750D03*
%TD*%
D11*
%TO.P,J1,1,Pin_1*%
%TO.N,Net-(J1-Pin_1)*%
X75848600Y-95754750D03*
D12*
%TO.P,J1,2,Pin_2*%
%TO.N,Net-(J1-Pin_2)*%
X75848600Y-93214750D03*
%TD*%
D32*
%TO.P,J5,1,Pin_1*%
%TO.N,Net-(J4-Pin_2)*%
X36822500Y-32257500D03*
D18*
%TO.P,J5,2,Pin_2*%
%TO.N,Net-(J5-Pin_2)*%
X36822500Y-24757500D03*
%TD*%
D10*
%TO.P,RV5,1,1*%
%TO.N,Net-(U4B--)*%
X44800600Y-83920250D03*
%TO.P,RV5,2,2*%
%TO.N,Net-(R40-Pad1)*%
X44800600Y-86460250D03*
%TO.P,RV5,3,3*%
X44800600Y-89000250D03*
%TD*%
D24*
%TO.P,Q7,1,A1*%
%TO.N,Net-(J11-Pin_2)*%
X119425250Y-22083000D03*
D25*
%TO.P,Q7,2,A2*%
%TO.N,Net-(J10-Pin_1)*%
X121965250Y-22083000D03*
%TO.P,Q7,3,G*%
%TO.N,Net-(Q7-G)*%
X124505250Y-22083000D03*
%TD*%
D11*
%TO.P,J24,1,Pin_1*%
%TO.N,Net-(J24-Pin_1)*%
X36927350Y-111413750D03*
D12*
%TO.P,J24,2,Pin_2*%
%TO.N,GND*%
X34387350Y-111413750D03*
%TD*%
D32*
%TO.P,J12,1,Pin_1*%
%TO.N,Net-(J12-Pin_1)*%
X169093500Y-49664000D03*
D18*
%TO.P,J12,2,Pin_2*%
%TO.N,Net-(J12-Pin_2)*%
X169093500Y-42164000D03*
%TD*%
D16*
%TO.P,R45,1*%
%TO.N,Net-(R45-Pad1)*%
X139065250Y-52060000D03*
D31*
%TO.P,R45,2*%
%TO.N,Net-(Q7-G)*%
X139065250Y-21580000D03*
%TD*%
D11*
%TO.P,J2,1,Pin_1*%
%TO.N,+3V3*%
X91665100Y-140877750D03*
D12*
%TO.P,J2,2,Pin_2*%
%TO.N,GND*%
X91665100Y-138337750D03*
%TO.P,J2,3,Pin_3*%
%TO.N,Net-(J2-Pin_3)*%
X91665100Y-135797750D03*
%TO.P,J2,4,Pin_4*%
%TO.N,Net-(J2-Pin_4)*%
X91665100Y-133257750D03*
%TD*%
D11*
%TO.P,J7,1,Pin_1*%
%TO.N,/FAN/FAN_Control+*%
X49547500Y-49542500D03*
D12*
%TO.P,J7,2,Pin_2*%
%TO.N,/FAN/FAN_Control-*%
X49547500Y-52082500D03*
%TD*%
D10*
%TO.P,RV2,1,1*%
%TO.N,Net-(U2B--)*%
X110011600Y-89526750D03*
%TO.P,RV2,2,2*%
%TO.N,Net-(R23-Pad1)*%
X107471600Y-89526750D03*
%TO.P,RV2,3,3*%
X104931600Y-89526750D03*
%TD*%
D11*
%TO.P,J3,1,Pin_1*%
%TO.N,/ENCODER/GND*%
X186080000Y-67543000D03*
D12*
%TO.P,J3,2,Pin_2*%
%TO.N,/ENCODER/Button3*%
X183540000Y-67543000D03*
%TO.P,J3,3,Pin_3*%
%TO.N,/ENCODER/Button2*%
X181000000Y-67543000D03*
%TO.P,J3,4,Pin_4*%
%TO.N,/ENCODER/Batton1*%
X178460000Y-67543000D03*
%TO.P,J3,5,Pin_5*%
%TO.N,/ENCODER/Encoder_int*%
X175920000Y-67543000D03*
%TO.P,J3,6,Pin_6*%
%TO.N,/ENCODER/B*%
X173380000Y-67543000D03*
%TO.P,J3,7,Pin_7*%
%TO.N,/ENCODER/S*%
X170840000Y-67543000D03*
%TO.P,J3,8,Pin_8*%
%TO.N,/ENCODER/A*%
X168300000Y-67543000D03*
%TO.P,J3,9,Pin_9*%
%TO.N,/ENCODER/3v3*%
X165760000Y-67543000D03*
%TD*%
D11*
%TO.P,J14,1,Pin_1*%
%TO.N,/ENCODER2/3v3*%
X156839000Y-66933000D03*
D12*
%TO.P,J14,2,Pin_2*%
%TO.N,/ENCODER2/Button3*%
X154299000Y-66933000D03*
%TO.P,J14,3,Pin_3*%
%TO.N,/ENCODER2/Button2*%
X151759000Y-66933000D03*
%TO.P,J14,4,Pin_4*%
%TO.N,/ENCODER2/Batton1*%
X149219000Y-66933000D03*
%TO.P,J14,5,Pin_5*%
%TO.N,/ENCODER2/S*%
X146679000Y-66933000D03*
%TO.P,J14,6,Pin_6*%
%TO.N,/ENCODER2/Encoder_int*%
X144139000Y-66933000D03*
%TO.P,J14,7,Pin_7*%
%TO.N,/ENCODER2/B*%
X141599000Y-66933000D03*
%TO.P,J14,8,Pin_8*%
%TO.N,/ENCODER2/A*%
X139059000Y-66933000D03*
%TO.P,J14,9,Pin_9*%
%TO.N,/ENCODER2/GND*%
X136519000Y-66933000D03*
%TD*%
D35*
%TO.N,*%
X92574750Y-23640500D03*
X194818000Y-62484000D03*
X148454750Y-51580500D03*
X92574750Y-51580500D03*
X28799350Y-137668000D03*
X28799350Y-64008000D03*
X83653000Y-23555250D03*
X198756500Y-23951000D03*
X158116500Y-23951000D03*
X126492000Y-124206000D03*
X115159350Y-137668000D03*
X198756500Y-51891000D03*
X115159350Y-64008000D03*
X27773000Y-23555250D03*
X158116500Y-51891000D03*
X148454750Y-23640500D03*
X194818000Y-124206000D03*
X126492000Y-62484000D03*
X27773000Y-51554500D03*
X83788250Y-51554500D03*
%TD*%
M02*
